<?xml version="1.0" encoding="UTF-8" standalone="no"?>
<!-- Created with Inkscape (http://www.inkscape.org/) -->

<svg
   version="1.1"
   id="svg2"
   width="741.33331"
   height="372.26669"
   viewBox="0 0 741.33331 372.26669"
   sodipodi:docname="sdq_logo.svg"
   inkscape:version="1.2 (1:1.2.1+202207142221+cd75a1ee6d)"
   xmlns:inkscape="http://www.inkscape.org/namespaces/inkscape"
   xmlns:sodipodi="http://sodipodi.sourceforge.net/DTD/sodipodi-0.dtd"
   xmlns="http://www.w3.org/2000/svg"
   xmlns:svg="http://www.w3.org/2000/svg">
  <defs
     id="defs6">
    <linearGradient
       id="linearGradient3800"
       inkscape:swatch="solid">
      <stop
         style="stop-color:#c1bdba;stop-opacity:1;"
         offset="0"
         id="stop3798" />
    </linearGradient>
    <linearGradient
       x1="346.89844"
       y1="493.65625"
       x2="219.97656"
       y2="215.35938"
       gradientUnits="userSpaceOnUse"
       gradientTransform="translate(-25.386822,-214.90757)"
       spreadMethod="pad"
       id="linearGradient24">
      <stop
         style="stop-opacity:1;stop-color:#4664aa"
         offset="0"
         id="stop18" />
      <stop
         style="stop-opacity:1;stop-color:#7d92c3"
         offset="0.503704"
         id="stop20" />
      <stop
         style="stop-opacity:1;stop-color:#4664aa"
         offset="1"
         id="stop22" />
    </linearGradient>
    <meshgradient
       inkscape:collect="always"
       id="meshgradient3806"
       gradientUnits="userSpaceOnUse"
       x="556.83862"
       y="-774.38818">
      <meshrow
         id="meshrow3808">
        <meshpatch
           id="meshpatch3810">
          <stop
             path="c 185.691,0  371.382,0  557.073,0"
             style="stop-color:#ffffff;stop-opacity:1"
             id="stop3812" />
          <stop
             path="c 0,94.5136  0,189.027  0,283.541"
             style="stop-color:#c1bdba;stop-opacity:1"
             id="stop3814" />
          <stop
             path="c -185.691,0  -371.382,0  -557.073,0"
             style="stop-color:#ffffff;stop-opacity:1"
             id="stop3816" />
          <stop
             path="c 0,-94.5136  0,-189.027  0,-283.541"
             style="stop-color:#c1bdba;stop-opacity:1"
             id="stop3818" />
        </meshpatch>
      </meshrow>
    </meshgradient>
  </defs>
  <sodipodi:namedview
     id="namedview4"
     pagecolor="#ffffff"
     bordercolor="#000000"
     borderopacity="0.25"
     inkscape:showpageshadow="2"
     inkscape:pageopacity="0.0"
     inkscape:pagecheckerboard="0"
     inkscape:deskcolor="#d1d1d1"
     showgrid="false"
     showguides="true"
     inkscape:zoom="0.82736383"
     inkscape:cx="1334.3585"
     inkscape:cy="-341.44591"
     inkscape:window-width="1920"
     inkscape:window-height="1019"
     inkscape:window-x="0"
     inkscape:window-y="30"
     inkscape:window-maximized="1"
     inkscape:current-layer="g1239">
    <inkscape:page
       x="0"
       y="0"
       id="page8"
       width="741.33331"
       height="372.26669" />
    <sodipodi:guide
       position="97.296977,53.785282"
       orientation="1,0"
       id="guide996"
       inkscape:locked="false" />
    <sodipodi:guide
       position="642.40178,57.411256"
       orientation="1,0"
       id="guide998"
       inkscape:locked="false" />
    <sodipodi:guide
       position="448.41215,316.66842"
       orientation="0,-1"
       id="guide1020"
       inkscape:locked="false" />
    <sodipodi:guide
       position="461.70739,105.15325"
       orientation="0,-1"
       id="guide1022"
       inkscape:locked="false" />
    <sodipodi:guide
       position="907.63866,1016.673"
       orientation="1,0"
       id="guide4050"
       inkscape:locked="false" />
    <sodipodi:guide
       position="1050.3653,1008.1265"
       orientation="1,0"
       id="guide4052"
       inkscape:locked="false" />
    <sodipodi:guide
       position="993.10369,761.13259"
       orientation="0,-1"
       id="guide4054"
       inkscape:locked="false" />
    <sodipodi:guide
       position="1044.2806,910.11954"
       orientation="0,-1"
       id="guide4056"
       inkscape:locked="false" />
    <sodipodi:guide
       position="1029.4745,875.37062"
       orientation="1,0"
       id="guide4058"
       inkscape:locked="false" />
  </sodipodi:namedview>
  <g
     id="g10"
     inkscape:groupmode="layer"
     inkscape:label="Page 1"
     transform="matrix(1.3333333,0,0,-1.3333333,0,372.26668)">
    <g
       id="g12"
       transform="translate(-602.2067,243.11464)">
      <g
         id="g14">
        <g
           id="g16"
           transform="matrix(1,0,0,-1,0,279.20001)">
          <path
             d="m 1.531,1.531 h 512.828 c 10.329,0 20.594,4.25 27.895,11.555 7.305,7.301 11.555,17.566 11.555,27.894 V 277.668 H 40.98 c -10.328,0 -20.593,-4.25 -27.894,-11.551 C 5.781,258.813 1.531,248.547 1.531,238.219 Z"
             style="fill:url(#linearGradient24);fill-opacity:1;fill-rule:nonzero;stroke:#4d4d4d;stroke-width:3.06;stroke-linecap:round;stroke-linejoin:round;stroke-miterlimit:3;stroke-dasharray:none;stroke-opacity:1"
             id="path26" />
        </g>
      </g>
      <g
         id="g28"
         transform="matrix(-1,0,0,1,0,279.20001)">
        <path
           d="m -404.133,-117.703 c 5.176,0 10.317,-2.129 13.973,-5.785 3.66,-3.66 5.789,-8.801 5.789,-13.973 0,-5.176 -2.129,-10.316 -5.789,-13.973 -3.656,-3.656 -8.797,-5.789 -13.973,-5.789"
           style="fill:none;stroke:#c7d0e5;stroke-width:3.12;stroke-linecap:round;stroke-linejoin:round;stroke-miterlimit:3;stroke-dasharray:none;stroke-opacity:1"
           id="path30" />
      </g>
      <g
         id="g32"
         transform="matrix(1,0,0,-1,0,279.20001)">
        <path
           d="m 417.305,137.738 c 0,6.821 -5.528,12.352 -12.348,12.352 -6.824,0 -12.352,-5.531 -12.352,-12.352 0,-6.82 5.528,-12.351 12.352,-12.351 6.82,0 12.348,5.531 12.348,12.351 z"
           style="fill:none;stroke:#c7d0e5;stroke-width:3.12;stroke-linecap:round;stroke-linejoin:round;stroke-miterlimit:3;stroke-dasharray:none;stroke-opacity:1"
           id="path34" />
      </g>
      <g
         id="g36"
         transform="matrix(1,0,0,-1,0,279.20001)">
        <path
           d="m 417.277,136.914 h 13.75"
           style="fill:none;stroke:#c7d0e5;stroke-width:3.12;stroke-linecap:round;stroke-linejoin:round;stroke-miterlimit:3;stroke-dasharray:none;stroke-opacity:1"
           id="path38" />
      </g>
      <g
         id="g40"
         transform="matrix(1,0,0,-1,0,279.20001)">
        <path
           d="m 375.586,136.914 h 8.781"
           style="fill:none;stroke:#c7d0e5;stroke-width:3.12;stroke-linecap:round;stroke-linejoin:round;stroke-miterlimit:3;stroke-dasharray:none;stroke-opacity:1"
           id="path42" />
      </g>
      <g
         id="g44"
         transform="matrix(0,-1,-1,0,0,279.20001)">
        <path
           d="m 110.566,-375.586 h 52.7"
           style="fill:none;stroke:#c7d0e5;stroke-width:3.12;stroke-linecap:round;stroke-linejoin:round;stroke-miterlimit:3;stroke-dasharray:none;stroke-opacity:1"
           id="path46" />
      </g>
      <g
         id="g48"
         transform="matrix(1,0,0,-1,0,279.20001)">
        <path
           d="m 336.641,110.566 h 37.851"
           style="fill:none;stroke:#c7d0e5;stroke-width:3.12;stroke-linecap:round;stroke-linejoin:round;stroke-miterlimit:3;stroke-dasharray:none;stroke-opacity:1"
           id="path50" />
      </g>
      <g
         id="g52"
         transform="matrix(1,0,0,-1,0,279.20001)">
        <path
           d="m 350.465,163.266 h 25.121"
           style="fill:none;stroke:#c7d0e5;stroke-width:3.12;stroke-linecap:round;stroke-linejoin:round;stroke-miterlimit:3;stroke-dasharray:none;stroke-opacity:1"
           id="path54" />
      </g>
      <g
         id="g56"
         transform="matrix(0,-1,-1,0,0,279.20001)">
        <path
           d="m 110.566,-431.023 h 52.7"
           style="fill:none;stroke:#c7d0e5;stroke-width:3.12;stroke-linecap:round;stroke-linejoin:round;stroke-miterlimit:3;stroke-dasharray:none;stroke-opacity:1"
           id="path58" />
      </g>
      <g
         id="g60"
         transform="matrix(1,0,0,-1,0,279.20001)">
        <path
           d="m 431.031,110.566 h 42.43"
           style="fill:none;stroke:#c7d0e5;stroke-width:3.12;stroke-linecap:round;stroke-linejoin:round;stroke-miterlimit:3;stroke-dasharray:none;stroke-opacity:1"
           id="path62" />
      </g>
      <g
         id="g64"
         transform="matrix(1,0,0,-1,0,279.20001)">
        <path
           d="m 431.031,163.266 h 28.598"
           style="fill:none;stroke:#c7d0e5;stroke-width:3.12;stroke-linecap:round;stroke-linejoin:round;stroke-miterlimit:3;stroke-dasharray:none;stroke-opacity:1"
           id="path66" />
      </g>
      <g
         id="g68"
         transform="matrix(-0.314992,-1,-1,0.314992,0,279.20001)">
        <path
           d="m -21.937,-407.102 19.45,0.003"
           style="fill:none;stroke:#c7d0e5;stroke-width:2.97585;stroke-linecap:round;stroke-linejoin:round;stroke-miterlimit:3;stroke-dasharray:2.97585, 5.95171;stroke-dashoffset:0;stroke-opacity:1"
           id="path70" />
      </g>
      <g
         id="g72"
         transform="matrix(1,0,0,-1,0,279.20001)">
        <path
           d="m 368.52,57.941 v 44.661 h 89.32 V 72.832 L 435.512,57.941 Z"
           style="fill:#ffb500;fill-opacity:1;fill-rule:nonzero;stroke:#c7d0e5;stroke-width:3.12;stroke-linecap:round;stroke-linejoin:round;stroke-miterlimit:3;stroke-dasharray:none;stroke-opacity:1"
           id="path74" />
      </g>
      <path
         d="m 387.688,203.649 h -1.407 l -1.988,3.301 -1.992,-3.301 h -1.387 l 2.719,4.176 -2.5,3.992 h 1.316 l 1.871,-3.074 1.879,3.074 h 1.281 l -2.503,-3.941 z m 27.523,4.039 h -5.375 v 0.918 h 5.375 z m 0,-2.175 h -5.375 v 0.917 h 5.375 z m 7.07,-1.864 h -5.129 v 1.012 h 2.098 v 5.965 l -1.957,-1.063 -0.398,0.922 2.601,1.371 h 0.961 v -7.195 h 1.824 z m 4.289,1.969 c 0.141,0 0.274,-0.027 0.403,-0.082 0.125,-0.055 0.234,-0.133 0.332,-0.227 0.09,-0.097 0.164,-0.207 0.222,-0.332 0.051,-0.129 0.078,-0.265 0.082,-0.41 -0.004,-0.144 -0.031,-0.277 -0.082,-0.398 -0.058,-0.129 -0.132,-0.239 -0.222,-0.328 -0.098,-0.098 -0.207,-0.168 -0.332,-0.223 -0.129,-0.051 -0.262,-0.078 -0.403,-0.082 -0.148,0.004 -0.285,0.031 -0.406,0.082 -0.129,0.055 -0.238,0.125 -0.328,0.223 -0.098,0.089 -0.172,0.199 -0.223,0.328 -0.058,0.121 -0.086,0.254 -0.082,0.398 -0.004,0.145 0.024,0.281 0.082,0.41 0.051,0.125 0.125,0.235 0.223,0.332 0.09,0.094 0.199,0.172 0.328,0.227 0.121,0.055 0.258,0.082 0.406,0.082 z m 10.071,2.113 c -0.004,-0.629 -0.067,-1.199 -0.188,-1.711 -0.129,-0.515 -0.316,-0.957 -0.57,-1.324 -0.254,-0.371 -0.57,-0.656 -0.945,-0.859 -0.379,-0.199 -0.821,-0.297 -1.329,-0.301 -0.437,0.004 -0.836,0.082 -1.195,0.246 -0.359,0.164 -0.668,0.418 -0.918,0.762 -0.258,0.34 -0.453,0.773 -0.59,1.304 -0.136,0.524 -0.203,1.153 -0.203,1.883 0,0.621 0.063,1.192 0.188,1.711 0.125,0.516 0.312,0.957 0.57,1.328 0.25,0.368 0.566,0.653 0.945,0.856 0.379,0.199 0.821,0.301 1.328,0.304 0.434,-0.003 0.832,-0.085 1.192,-0.246 0.355,-0.168 0.66,-0.421 0.918,-0.761 0.25,-0.348 0.449,-0.785 0.59,-1.313 0.136,-0.531 0.203,-1.156 0.207,-1.879 z m -1.102,-0.039 c -0.004,0.141 -0.008,0.281 -0.016,0.422 -0.011,0.141 -0.023,0.277 -0.035,0.41 l -3.453,-2.57 c 0.059,-0.219 0.137,-0.418 0.235,-0.602 0.093,-0.183 0.21,-0.339 0.347,-0.468 0.133,-0.133 0.285,-0.235 0.461,-0.305 0.172,-0.074 0.371,-0.109 0.594,-0.109 0.281,0 0.539,0.066 0.769,0.203 0.231,0.136 0.426,0.34 0.59,0.613 0.16,0.266 0.285,0.602 0.375,1.008 0.086,0.398 0.129,0.867 0.133,1.398 z m -3.738,0.074 c -0.004,-0.128 0,-0.257 0.004,-0.386 0,-0.129 0.008,-0.254 0.023,-0.375 l 3.457,2.558 c -0.062,0.207 -0.144,0.403 -0.238,0.578 -0.102,0.176 -0.215,0.325 -0.344,0.454 -0.137,0.125 -0.289,0.226 -0.457,0.296 -0.176,0.071 -0.367,0.106 -0.574,0.11 -0.285,-0.004 -0.543,-0.074 -0.774,-0.207 -0.234,-0.141 -0.429,-0.344 -0.589,-0.617 -0.164,-0.274 -0.289,-0.614 -0.375,-1.012 -0.09,-0.406 -0.137,-0.871 -0.133,-1.399 z m 11.89,-0.035 c -0.003,-0.629 -0.066,-1.199 -0.187,-1.711 -0.129,-0.515 -0.316,-0.957 -0.57,-1.324 -0.254,-0.371 -0.571,-0.656 -0.946,-0.859 -0.379,-0.199 -0.82,-0.297 -1.328,-0.301 -0.437,0.004 -0.836,0.082 -1.195,0.246 -0.36,0.164 -0.668,0.418 -0.918,0.762 -0.258,0.34 -0.453,0.773 -0.59,1.304 -0.137,0.524 -0.203,1.153 -0.203,1.883 0,0.621 0.062,1.192 0.187,1.711 0.125,0.516 0.313,0.957 0.571,1.328 0.25,0.368 0.566,0.653 0.945,0.856 0.379,0.199 0.82,0.301 1.328,0.304 0.434,-0.003 0.832,-0.085 1.192,-0.246 0.355,-0.168 0.66,-0.421 0.918,-0.761 0.25,-0.348 0.449,-0.785 0.589,-1.313 0.137,-0.531 0.204,-1.156 0.207,-1.879 z m -1.101,-0.039 c -0.004,0.141 -0.008,0.281 -0.016,0.422 -0.011,0.141 -0.023,0.277 -0.035,0.41 l -3.453,-2.57 c 0.059,-0.219 0.137,-0.418 0.234,-0.602 0.094,-0.183 0.211,-0.339 0.348,-0.468 0.133,-0.133 0.285,-0.235 0.461,-0.305 0.172,-0.074 0.371,-0.109 0.594,-0.109 0.281,0 0.539,0.066 0.769,0.203 0.231,0.136 0.426,0.34 0.59,0.613 0.16,0.266 0.285,0.602 0.375,1.008 0.086,0.398 0.129,0.867 0.133,1.398 z m -3.738,0.074 c -0.004,-0.128 0,-0.257 0.003,-0.386 0,-0.129 0.008,-0.254 0.024,-0.375 l 3.457,2.558 c -0.063,0.207 -0.145,0.403 -0.238,0.578 -0.102,0.176 -0.215,0.325 -0.344,0.454 -0.137,0.125 -0.289,0.226 -0.457,0.296 -0.176,0.071 -0.367,0.106 -0.574,0.11 -0.285,-0.004 -0.543,-0.074 -0.774,-0.207 -0.234,-0.141 -0.429,-0.344 -0.59,-0.617 -0.164,-0.274 -0.289,-0.614 -0.375,-1.012 -0.089,-0.406 -0.136,-0.871 -0.132,-1.399 z"
         style="fill:#666666;fill-opacity:1;fill-rule:nonzero;stroke:none"
         id="path76" />
      <path
         d="m 387.688,203.649 h -1.407 l -1.988,3.301 -1.992,-3.301 h -1.387 l 2.719,4.176 -2.5,3.992 h 1.316 l 1.871,-3.074 1.879,3.074 h 1.281 l -2.503,-3.941 z m 27.523,4.039 h -5.375 v 0.918 h 5.375 z m 0,-2.175 h -5.375 v 0.917 h 5.375 z m 7.07,-1.864 h -5.129 v 1.012 h 2.098 v 5.965 l -1.957,-1.063 -0.398,0.922 2.601,1.371 h 0.961 v -7.195 h 1.824 z m 4.289,1.969 c 0.141,0 0.274,-0.027 0.403,-0.082 0.125,-0.055 0.234,-0.133 0.332,-0.227 0.09,-0.097 0.164,-0.207 0.222,-0.332 0.051,-0.129 0.078,-0.265 0.082,-0.41 -0.004,-0.144 -0.031,-0.277 -0.082,-0.398 -0.058,-0.129 -0.132,-0.239 -0.222,-0.328 -0.098,-0.098 -0.207,-0.168 -0.332,-0.223 -0.129,-0.051 -0.262,-0.078 -0.403,-0.082 -0.148,0.004 -0.285,0.031 -0.406,0.082 -0.129,0.055 -0.238,0.125 -0.328,0.223 -0.098,0.089 -0.172,0.199 -0.223,0.328 -0.058,0.121 -0.086,0.254 -0.082,0.398 -0.004,0.145 0.024,0.281 0.082,0.41 0.051,0.125 0.125,0.235 0.223,0.332 0.09,0.094 0.199,0.172 0.328,0.227 0.121,0.055 0.258,0.082 0.406,0.082 z m 10.071,2.113 c -0.004,-0.629 -0.067,-1.199 -0.188,-1.711 -0.129,-0.515 -0.316,-0.957 -0.57,-1.324 -0.254,-0.371 -0.57,-0.656 -0.945,-0.859 -0.379,-0.199 -0.821,-0.297 -1.329,-0.301 -0.437,0.004 -0.836,0.082 -1.195,0.246 -0.359,0.164 -0.668,0.418 -0.918,0.762 -0.258,0.34 -0.453,0.773 -0.59,1.304 -0.136,0.524 -0.203,1.153 -0.203,1.883 0,0.621 0.063,1.192 0.188,1.711 0.125,0.516 0.312,0.957 0.57,1.328 0.25,0.368 0.566,0.653 0.945,0.856 0.379,0.199 0.821,0.301 1.328,0.304 0.434,-0.003 0.832,-0.085 1.192,-0.246 0.355,-0.168 0.66,-0.421 0.918,-0.761 0.25,-0.348 0.449,-0.785 0.59,-1.313 0.136,-0.531 0.203,-1.156 0.207,-1.879 z m -1.102,-0.039 c -0.004,0.141 -0.008,0.281 -0.016,0.422 -0.011,0.141 -0.023,0.277 -0.035,0.41 l -3.453,-2.57 c 0.059,-0.219 0.137,-0.418 0.235,-0.602 0.093,-0.183 0.21,-0.339 0.347,-0.468 0.133,-0.133 0.285,-0.235 0.461,-0.305 0.172,-0.074 0.371,-0.109 0.594,-0.109 0.281,0 0.539,0.066 0.769,0.203 0.231,0.136 0.426,0.34 0.59,0.613 0.16,0.266 0.285,0.602 0.375,1.008 0.086,0.398 0.129,0.867 0.133,1.398 z m -3.738,0.074 c -0.004,-0.128 0,-0.257 0.004,-0.386 0,-0.129 0.008,-0.254 0.023,-0.375 l 3.457,2.558 c -0.062,0.207 -0.144,0.403 -0.238,0.578 -0.102,0.176 -0.215,0.325 -0.344,0.454 -0.137,0.125 -0.289,0.226 -0.457,0.296 -0.176,0.071 -0.367,0.106 -0.574,0.11 -0.285,-0.004 -0.543,-0.074 -0.774,-0.207 -0.234,-0.141 -0.429,-0.344 -0.589,-0.617 -0.164,-0.274 -0.289,-0.614 -0.375,-1.012 -0.09,-0.406 -0.137,-0.871 -0.133,-1.399 z m 11.89,-0.035 c -0.003,-0.629 -0.066,-1.199 -0.187,-1.711 -0.129,-0.515 -0.316,-0.957 -0.57,-1.324 -0.254,-0.371 -0.571,-0.656 -0.946,-0.859 -0.379,-0.199 -0.82,-0.297 -1.328,-0.301 -0.437,0.004 -0.836,0.082 -1.195,0.246 -0.36,0.164 -0.668,0.418 -0.918,0.762 -0.258,0.34 -0.453,0.773 -0.59,1.304 -0.137,0.524 -0.203,1.153 -0.203,1.883 0,0.621 0.062,1.192 0.187,1.711 0.125,0.516 0.313,0.957 0.571,1.328 0.25,0.368 0.566,0.653 0.945,0.856 0.379,0.199 0.82,0.301 1.328,0.304 0.434,-0.003 0.832,-0.085 1.192,-0.246 0.355,-0.168 0.66,-0.421 0.918,-0.761 0.25,-0.348 0.449,-0.785 0.589,-1.313 0.137,-0.531 0.204,-1.156 0.207,-1.879 z m -1.101,-0.039 c -0.004,0.141 -0.008,0.281 -0.016,0.422 -0.011,0.141 -0.023,0.277 -0.035,0.41 l -3.453,-2.57 c 0.059,-0.219 0.137,-0.418 0.234,-0.602 0.094,-0.183 0.211,-0.339 0.348,-0.468 0.133,-0.133 0.285,-0.235 0.461,-0.305 0.172,-0.074 0.371,-0.109 0.594,-0.109 0.281,0 0.539,0.066 0.769,0.203 0.231,0.136 0.426,0.34 0.59,0.613 0.16,0.266 0.285,0.602 0.375,1.008 0.086,0.398 0.129,0.867 0.133,1.398 z m -3.738,0.074 c -0.004,-0.128 0,-0.257 0.003,-0.386 0,-0.129 0.008,-0.254 0.024,-0.375 l 3.457,2.558 c -0.063,0.207 -0.145,0.403 -0.238,0.578 -0.102,0.176 -0.215,0.325 -0.344,0.454 -0.137,0.125 -0.289,0.226 -0.457,0.296 -0.176,0.071 -0.367,0.106 -0.574,0.11 -0.285,-0.004 -0.543,-0.074 -0.774,-0.207 -0.234,-0.141 -0.429,-0.344 -0.59,-0.617 -0.164,-0.274 -0.289,-0.614 -0.375,-1.012 -0.089,-0.406 -0.136,-0.871 -0.132,-1.399 z m -51.164,-20.117 h -1.407 l -1.988,3.301 -1.992,-3.301 h -1.387 l 2.719,4.176 -2.5,3.992 h 1.316 l 1.871,-3.074 1.879,3.074 h 1.281 l -2.503,-3.941 z m 27.523,4.039 h -5.375 v 0.918 h 5.375 z m 0,-2.175 h -5.375 v 0.917 h 5.375 z m 7.328,2.218 c -0.004,-0.629 -0.066,-1.199 -0.187,-1.711 -0.129,-0.515 -0.317,-0.957 -0.571,-1.324 -0.254,-0.371 -0.57,-0.656 -0.945,-0.859 -0.379,-0.199 -0.82,-0.297 -1.328,-0.301 -0.438,0.004 -0.836,0.082 -1.195,0.246 -0.36,0.164 -0.668,0.418 -0.918,0.762 -0.258,0.34 -0.454,0.773 -0.59,1.304 -0.137,0.524 -0.203,1.153 -0.203,1.883 0,0.621 0.062,1.192 0.187,1.711 0.125,0.516 0.313,0.957 0.57,1.328 0.25,0.368 0.567,0.653 0.946,0.856 0.379,0.199 0.82,0.301 1.328,0.304 0.433,-0.003 0.832,-0.085 1.191,-0.246 0.356,-0.168 0.66,-0.421 0.918,-0.761 0.25,-0.348 0.449,-0.785 0.59,-1.313 0.137,-0.531 0.203,-1.156 0.207,-1.879 z m -1.101,-0.039 c -0.004,0.141 -0.008,0.281 -0.016,0.422 -0.012,0.141 -0.024,0.277 -0.035,0.41 l -3.453,-2.57 c 0.058,-0.219 0.136,-0.418 0.234,-0.602 0.094,-0.183 0.211,-0.339 0.348,-0.468 0.132,-0.133 0.285,-0.235 0.461,-0.305 0.171,-0.074 0.371,-0.109 0.593,-0.109 0.282,0 0.539,0.066 0.77,0.203 0.23,0.136 0.426,0.34 0.59,0.613 0.16,0.266 0.285,0.602 0.375,1.008 0.086,0.398 0.129,0.867 0.133,1.398 z m -3.739,0.074 c -0.004,-0.128 0,-0.257 0.004,-0.386 0,-0.129 0.008,-0.254 0.024,-0.375 l 3.457,2.558 c -0.063,0.207 -0.145,0.403 -0.239,0.578 -0.101,0.176 -0.215,0.325 -0.343,0.454 -0.137,0.125 -0.289,0.226 -0.457,0.296 -0.176,0.071 -0.368,0.106 -0.575,0.11 -0.285,-0.004 -0.543,-0.074 -0.773,-0.207 -0.234,-0.141 -0.43,-0.344 -0.59,-0.617 -0.164,-0.274 -0.289,-0.614 -0.375,-1.012 -0.09,-0.406 -0.137,-0.871 -0.133,-1.399 z m 8.871,-2.148 c 0.141,0 0.274,-0.027 0.403,-0.082 0.125,-0.055 0.234,-0.133 0.332,-0.227 0.09,-0.097 0.164,-0.207 0.222,-0.332 0.051,-0.129 0.078,-0.265 0.082,-0.41 -0.004,-0.144 -0.031,-0.277 -0.082,-0.398 -0.058,-0.129 -0.132,-0.239 -0.222,-0.328 -0.098,-0.098 -0.207,-0.168 -0.332,-0.223 -0.129,-0.051 -0.262,-0.078 -0.403,-0.082 -0.148,0.004 -0.285,0.031 -0.406,0.082 -0.129,0.055 -0.238,0.125 -0.328,0.223 -0.098,0.089 -0.172,0.199 -0.223,0.328 -0.058,0.121 -0.086,0.254 -0.082,0.398 -0.004,0.145 0.024,0.281 0.082,0.41 0.051,0.125 0.125,0.235 0.223,0.332 0.09,0.094 0.199,0.172 0.328,0.227 0.121,0.055 0.258,0.082 0.406,0.082 z m 10.071,2.113 c -0.004,-0.629 -0.067,-1.199 -0.188,-1.711 -0.129,-0.515 -0.316,-0.957 -0.57,-1.324 -0.254,-0.371 -0.57,-0.656 -0.945,-0.859 -0.379,-0.199 -0.821,-0.297 -1.329,-0.301 -0.437,0.004 -0.836,0.082 -1.195,0.246 -0.359,0.164 -0.668,0.418 -0.918,0.762 -0.258,0.34 -0.453,0.773 -0.59,1.304 -0.136,0.524 -0.203,1.153 -0.203,1.883 0,0.621 0.063,1.192 0.188,1.711 0.125,0.516 0.312,0.957 0.57,1.328 0.25,0.368 0.566,0.653 0.945,0.856 0.379,0.199 0.821,0.301 1.328,0.304 0.434,-0.003 0.832,-0.085 1.192,-0.246 0.355,-0.168 0.66,-0.421 0.918,-0.761 0.25,-0.348 0.449,-0.785 0.59,-1.313 0.136,-0.531 0.203,-1.156 0.207,-1.879 z m -1.102,-0.039 c -0.004,0.141 -0.008,0.281 -0.016,0.422 -0.011,0.141 -0.023,0.277 -0.035,0.41 l -3.453,-2.57 c 0.059,-0.219 0.137,-0.418 0.235,-0.602 0.093,-0.183 0.21,-0.339 0.347,-0.468 0.133,-0.133 0.285,-0.235 0.461,-0.305 0.172,-0.074 0.371,-0.109 0.594,-0.109 0.281,0 0.539,0.066 0.769,0.203 0.231,0.136 0.426,0.34 0.59,0.613 0.16,0.266 0.285,0.602 0.375,1.008 0.086,0.398 0.129,0.867 0.133,1.398 z m -3.738,0.074 c -0.004,-0.128 0,-0.257 0.004,-0.386 0,-0.129 0.008,-0.254 0.023,-0.375 l 3.457,2.558 c -0.062,0.207 -0.144,0.403 -0.238,0.578 -0.102,0.176 -0.215,0.325 -0.344,0.454 -0.137,0.125 -0.289,0.226 -0.457,0.296 -0.176,0.071 -0.367,0.106 -0.574,0.11 -0.285,-0.004 -0.543,-0.074 -0.774,-0.207 -0.234,-0.141 -0.429,-0.344 -0.589,-0.617 -0.164,-0.274 -0.289,-0.614 -0.375,-1.012 -0.09,-0.406 -0.137,-0.871 -0.133,-1.399 z m 11.633,-4.117 h -5.129 v 1.012 h 2.097 v 5.965 l -1.957,-1.063 -0.398,0.922 2.601,1.371 h 0.961 v -7.195 h 1.825 z"
         style="fill:#666666;fill-opacity:1;fill-rule:nonzero;stroke:none"
         id="path78" />
      <path
         d="m 387.688,203.649 h -1.407 l -1.988,3.301 -1.992,-3.301 h -1.387 l 2.719,4.176 -2.5,3.992 h 1.316 l 1.871,-3.074 1.879,3.074 h 1.281 l -2.503,-3.941 z m 27.523,4.039 h -5.375 v 0.918 h 5.375 z m 0,-2.175 h -5.375 v 0.917 h 5.375 z m 7.07,-1.864 h -5.129 v 1.012 h 2.098 v 5.965 l -1.957,-1.063 -0.398,0.922 2.601,1.371 h 0.961 v -7.195 h 1.824 z m 4.289,1.969 c 0.141,0 0.274,-0.027 0.403,-0.082 0.125,-0.055 0.234,-0.133 0.332,-0.227 0.09,-0.097 0.164,-0.207 0.222,-0.332 0.051,-0.129 0.078,-0.265 0.082,-0.41 -0.004,-0.144 -0.031,-0.277 -0.082,-0.398 -0.058,-0.129 -0.132,-0.239 -0.222,-0.328 -0.098,-0.098 -0.207,-0.168 -0.332,-0.223 -0.129,-0.051 -0.262,-0.078 -0.403,-0.082 -0.148,0.004 -0.285,0.031 -0.406,0.082 -0.129,0.055 -0.238,0.125 -0.328,0.223 -0.098,0.089 -0.172,0.199 -0.223,0.328 -0.058,0.121 -0.086,0.254 -0.082,0.398 -0.004,0.145 0.024,0.281 0.082,0.41 0.051,0.125 0.125,0.235 0.223,0.332 0.09,0.094 0.199,0.172 0.328,0.227 0.121,0.055 0.258,0.082 0.406,0.082 z m 10.071,2.113 c -0.004,-0.629 -0.067,-1.199 -0.188,-1.711 -0.129,-0.515 -0.316,-0.957 -0.57,-1.324 -0.254,-0.371 -0.57,-0.656 -0.945,-0.859 -0.379,-0.199 -0.821,-0.297 -1.329,-0.301 -0.437,0.004 -0.836,0.082 -1.195,0.246 -0.359,0.164 -0.668,0.418 -0.918,0.762 -0.258,0.34 -0.453,0.773 -0.59,1.304 -0.136,0.524 -0.203,1.153 -0.203,1.883 0,0.621 0.063,1.192 0.188,1.711 0.125,0.516 0.312,0.957 0.57,1.328 0.25,0.368 0.566,0.653 0.945,0.856 0.379,0.199 0.821,0.301 1.328,0.304 0.434,-0.003 0.832,-0.085 1.192,-0.246 0.355,-0.168 0.66,-0.421 0.918,-0.761 0.25,-0.348 0.449,-0.785 0.59,-1.313 0.136,-0.531 0.203,-1.156 0.207,-1.879 z m -1.102,-0.039 c -0.004,0.141 -0.008,0.281 -0.016,0.422 -0.011,0.141 -0.023,0.277 -0.035,0.41 l -3.453,-2.57 c 0.059,-0.219 0.137,-0.418 0.235,-0.602 0.093,-0.183 0.21,-0.339 0.347,-0.468 0.133,-0.133 0.285,-0.235 0.461,-0.305 0.172,-0.074 0.371,-0.109 0.594,-0.109 0.281,0 0.539,0.066 0.769,0.203 0.231,0.136 0.426,0.34 0.59,0.613 0.16,0.266 0.285,0.602 0.375,1.008 0.086,0.398 0.129,0.867 0.133,1.398 z m -3.738,0.074 c -0.004,-0.128 0,-0.257 0.004,-0.386 0,-0.129 0.008,-0.254 0.023,-0.375 l 3.457,2.558 c -0.062,0.207 -0.144,0.403 -0.238,0.578 -0.102,0.176 -0.215,0.325 -0.344,0.454 -0.137,0.125 -0.289,0.226 -0.457,0.296 -0.176,0.071 -0.367,0.106 -0.574,0.11 -0.285,-0.004 -0.543,-0.074 -0.774,-0.207 -0.234,-0.141 -0.429,-0.344 -0.589,-0.617 -0.164,-0.274 -0.289,-0.614 -0.375,-1.012 -0.09,-0.406 -0.137,-0.871 -0.133,-1.399 z m 11.89,-0.035 c -0.003,-0.629 -0.066,-1.199 -0.187,-1.711 -0.129,-0.515 -0.316,-0.957 -0.57,-1.324 -0.254,-0.371 -0.571,-0.656 -0.946,-0.859 -0.379,-0.199 -0.82,-0.297 -1.328,-0.301 -0.437,0.004 -0.836,0.082 -1.195,0.246 -0.36,0.164 -0.668,0.418 -0.918,0.762 -0.258,0.34 -0.453,0.773 -0.59,1.304 -0.137,0.524 -0.203,1.153 -0.203,1.883 0,0.621 0.062,1.192 0.187,1.711 0.125,0.516 0.313,0.957 0.571,1.328 0.25,0.368 0.566,0.653 0.945,0.856 0.379,0.199 0.82,0.301 1.328,0.304 0.434,-0.003 0.832,-0.085 1.192,-0.246 0.355,-0.168 0.66,-0.421 0.918,-0.761 0.25,-0.348 0.449,-0.785 0.589,-1.313 0.137,-0.531 0.204,-1.156 0.207,-1.879 z m -1.101,-0.039 c -0.004,0.141 -0.008,0.281 -0.016,0.422 -0.011,0.141 -0.023,0.277 -0.035,0.41 l -3.453,-2.57 c 0.059,-0.219 0.137,-0.418 0.234,-0.602 0.094,-0.183 0.211,-0.339 0.348,-0.468 0.133,-0.133 0.285,-0.235 0.461,-0.305 0.172,-0.074 0.371,-0.109 0.594,-0.109 0.281,0 0.539,0.066 0.769,0.203 0.231,0.136 0.426,0.34 0.59,0.613 0.16,0.266 0.285,0.602 0.375,1.008 0.086,0.398 0.129,0.867 0.133,1.398 z m -3.738,0.074 c -0.004,-0.128 0,-0.257 0.003,-0.386 0,-0.129 0.008,-0.254 0.024,-0.375 l 3.457,2.558 c -0.063,0.207 -0.145,0.403 -0.238,0.578 -0.102,0.176 -0.215,0.325 -0.344,0.454 -0.137,0.125 -0.289,0.226 -0.457,0.296 -0.176,0.071 -0.367,0.106 -0.574,0.11 -0.285,-0.004 -0.543,-0.074 -0.774,-0.207 -0.234,-0.141 -0.429,-0.344 -0.59,-0.617 -0.164,-0.274 -0.289,-0.614 -0.375,-1.012 -0.089,-0.406 -0.136,-0.871 -0.132,-1.399 z m -51.164,-20.117 h -1.407 l -1.988,3.301 -1.992,-3.301 h -1.387 l 2.719,4.176 -2.5,3.992 h 1.316 l 1.871,-3.074 1.879,3.074 h 1.281 l -2.503,-3.941 z m 27.523,4.039 h -5.375 v 0.918 h 5.375 z m 0,-2.175 h -5.375 v 0.917 h 5.375 z m 7.328,2.218 c -0.004,-0.629 -0.066,-1.199 -0.187,-1.711 -0.129,-0.515 -0.317,-0.957 -0.571,-1.324 -0.254,-0.371 -0.57,-0.656 -0.945,-0.859 -0.379,-0.199 -0.82,-0.297 -1.328,-0.301 -0.438,0.004 -0.836,0.082 -1.195,0.246 -0.36,0.164 -0.668,0.418 -0.918,0.762 -0.258,0.34 -0.454,0.773 -0.59,1.304 -0.137,0.524 -0.203,1.153 -0.203,1.883 0,0.621 0.062,1.192 0.187,1.711 0.125,0.516 0.313,0.957 0.57,1.328 0.25,0.368 0.567,0.653 0.946,0.856 0.379,0.199 0.82,0.301 1.328,0.304 0.433,-0.003 0.832,-0.085 1.191,-0.246 0.356,-0.168 0.66,-0.421 0.918,-0.761 0.25,-0.348 0.449,-0.785 0.59,-1.313 0.137,-0.531 0.203,-1.156 0.207,-1.879 z m -1.101,-0.039 c -0.004,0.141 -0.008,0.281 -0.016,0.422 -0.012,0.141 -0.024,0.277 -0.035,0.41 l -3.453,-2.57 c 0.058,-0.219 0.136,-0.418 0.234,-0.602 0.094,-0.183 0.211,-0.339 0.348,-0.468 0.132,-0.133 0.285,-0.235 0.461,-0.305 0.171,-0.074 0.371,-0.109 0.593,-0.109 0.282,0 0.539,0.066 0.77,0.203 0.23,0.136 0.426,0.34 0.59,0.613 0.16,0.266 0.285,0.602 0.375,1.008 0.086,0.398 0.129,0.867 0.133,1.398 z m -3.739,0.074 c -0.004,-0.128 0,-0.257 0.004,-0.386 0,-0.129 0.008,-0.254 0.024,-0.375 l 3.457,2.558 c -0.063,0.207 -0.145,0.403 -0.239,0.578 -0.101,0.176 -0.215,0.325 -0.343,0.454 -0.137,0.125 -0.289,0.226 -0.457,0.296 -0.176,0.071 -0.368,0.106 -0.575,0.11 -0.285,-0.004 -0.543,-0.074 -0.773,-0.207 -0.234,-0.141 -0.43,-0.344 -0.59,-0.617 -0.164,-0.274 -0.289,-0.614 -0.375,-1.012 -0.09,-0.406 -0.137,-0.871 -0.133,-1.399 z m 8.871,-2.148 c 0.141,0 0.274,-0.027 0.403,-0.082 0.125,-0.055 0.234,-0.133 0.332,-0.227 0.09,-0.097 0.164,-0.207 0.222,-0.332 0.051,-0.129 0.078,-0.265 0.082,-0.41 -0.004,-0.144 -0.031,-0.277 -0.082,-0.398 -0.058,-0.129 -0.132,-0.239 -0.222,-0.328 -0.098,-0.098 -0.207,-0.168 -0.332,-0.223 -0.129,-0.051 -0.262,-0.078 -0.403,-0.082 -0.148,0.004 -0.285,0.031 -0.406,0.082 -0.129,0.055 -0.238,0.125 -0.328,0.223 -0.098,0.089 -0.172,0.199 -0.223,0.328 -0.058,0.121 -0.086,0.254 -0.082,0.398 -0.004,0.145 0.024,0.281 0.082,0.41 0.051,0.125 0.125,0.235 0.223,0.332 0.09,0.094 0.199,0.172 0.328,0.227 0.121,0.055 0.258,0.082 0.406,0.082 z m 10.071,2.113 c -0.004,-0.629 -0.067,-1.199 -0.188,-1.711 -0.129,-0.515 -0.316,-0.957 -0.57,-1.324 -0.254,-0.371 -0.57,-0.656 -0.945,-0.859 -0.379,-0.199 -0.821,-0.297 -1.329,-0.301 -0.437,0.004 -0.836,0.082 -1.195,0.246 -0.359,0.164 -0.668,0.418 -0.918,0.762 -0.258,0.34 -0.453,0.773 -0.59,1.304 -0.136,0.524 -0.203,1.153 -0.203,1.883 0,0.621 0.063,1.192 0.188,1.711 0.125,0.516 0.312,0.957 0.57,1.328 0.25,0.368 0.566,0.653 0.945,0.856 0.379,0.199 0.821,0.301 1.328,0.304 0.434,-0.003 0.832,-0.085 1.192,-0.246 0.355,-0.168 0.66,-0.421 0.918,-0.761 0.25,-0.348 0.449,-0.785 0.59,-1.313 0.136,-0.531 0.203,-1.156 0.207,-1.879 z m -1.102,-0.039 c -0.004,0.141 -0.008,0.281 -0.016,0.422 -0.011,0.141 -0.023,0.277 -0.035,0.41 l -3.453,-2.57 c 0.059,-0.219 0.137,-0.418 0.235,-0.602 0.093,-0.183 0.21,-0.339 0.347,-0.468 0.133,-0.133 0.285,-0.235 0.461,-0.305 0.172,-0.074 0.371,-0.109 0.594,-0.109 0.281,0 0.539,0.066 0.769,0.203 0.231,0.136 0.426,0.34 0.59,0.613 0.16,0.266 0.285,0.602 0.375,1.008 0.086,0.398 0.129,0.867 0.133,1.398 z m -3.738,0.074 c -0.004,-0.128 0,-0.257 0.004,-0.386 0,-0.129 0.008,-0.254 0.023,-0.375 l 3.457,2.558 c -0.062,0.207 -0.144,0.403 -0.238,0.578 -0.102,0.176 -0.215,0.325 -0.344,0.454 -0.137,0.125 -0.289,0.226 -0.457,0.296 -0.176,0.071 -0.367,0.106 -0.574,0.11 -0.285,-0.004 -0.543,-0.074 -0.774,-0.207 -0.234,-0.141 -0.429,-0.344 -0.589,-0.617 -0.164,-0.274 -0.289,-0.614 -0.375,-1.012 -0.09,-0.406 -0.137,-0.871 -0.133,-1.399 z m 11.633,-4.117 h -5.129 v 1.012 h 2.097 v 5.965 l -1.957,-1.063 -0.398,0.922 2.601,1.371 h 0.961 v -7.195 h 1.825 z m -50.723,16.547 c -0.004,-0.422 -0.063,-0.789 -0.176,-1.098 -0.121,-0.316 -0.285,-0.574 -0.488,-0.777 -0.211,-0.207 -0.453,-0.363 -0.731,-0.465 -0.285,-0.101 -0.589,-0.148 -0.914,-0.152 -0.152,0.004 -0.3,0.012 -0.445,0.023 -0.152,0.02 -0.305,0.043 -0.453,0.078 v -1.968 h -0.816 v 6.629 h 0.726 l 0.051,-0.789 c 0.23,0.32 0.48,0.546 0.75,0.675 0.262,0.129 0.551,0.192 0.863,0.196 0.266,-0.004 0.5,-0.059 0.707,-0.168 0.199,-0.114 0.371,-0.274 0.512,-0.477 0.137,-0.207 0.238,-0.453 0.308,-0.738 0.067,-0.293 0.102,-0.613 0.106,-0.969 z m -0.836,-0.039 c 0,0.242 -0.02,0.469 -0.055,0.68 -0.039,0.203 -0.097,0.383 -0.172,0.531 -0.082,0.145 -0.179,0.258 -0.3,0.344 -0.121,0.082 -0.266,0.125 -0.434,0.125 -0.105,0 -0.211,-0.02 -0.316,-0.051 -0.106,-0.035 -0.215,-0.09 -0.328,-0.164 -0.118,-0.078 -0.239,-0.18 -0.364,-0.305 -0.125,-0.129 -0.261,-0.285 -0.402,-0.469 v -2.285 c 0.144,-0.066 0.305,-0.113 0.473,-0.148 0.164,-0.035 0.324,-0.055 0.488,-0.051 0.437,-0.004 0.785,0.145 1.035,0.445 0.25,0.297 0.375,0.746 0.375,1.348 z m 6.078,0.203 c -0.004,-0.117 -0.008,-0.215 -0.008,-0.289 -0.007,-0.082 -0.011,-0.156 -0.011,-0.223 h -3.305 c -0.004,-0.484 0.133,-0.855 0.402,-1.109 0.266,-0.262 0.653,-0.391 1.164,-0.387 0.133,-0.004 0.27,0.004 0.41,0.016 0.137,0.012 0.27,0.027 0.399,0.047 0.125,0.015 0.246,0.035 0.367,0.062 0.113,0.02 0.223,0.047 0.328,0.078 v -0.671 c -0.226,-0.067 -0.476,-0.114 -0.754,-0.153 -0.281,-0.035 -0.57,-0.054 -0.867,-0.058 -0.406,0.004 -0.754,0.054 -1.043,0.164 -0.293,0.105 -0.531,0.265 -0.715,0.476 -0.187,0.207 -0.324,0.461 -0.414,0.766 -0.09,0.297 -0.136,0.641 -0.133,1.023 -0.003,0.328 0.047,0.641 0.145,0.938 0.094,0.297 0.23,0.555 0.418,0.781 0.18,0.219 0.406,0.399 0.672,0.531 0.265,0.129 0.566,0.192 0.906,0.196 0.324,-0.004 0.613,-0.055 0.871,-0.157 0.25,-0.105 0.465,-0.25 0.637,-0.437 0.172,-0.188 0.301,-0.418 0.394,-0.688 0.086,-0.273 0.133,-0.574 0.137,-0.906 z m -0.851,0.117 c 0.007,0.207 -0.012,0.399 -0.059,0.575 -0.055,0.171 -0.133,0.32 -0.234,0.449 -0.11,0.121 -0.239,0.219 -0.391,0.293 -0.16,0.066 -0.34,0.101 -0.543,0.105 -0.18,-0.004 -0.344,-0.039 -0.488,-0.105 -0.149,-0.071 -0.274,-0.168 -0.379,-0.289 -0.11,-0.129 -0.195,-0.278 -0.258,-0.453 -0.066,-0.176 -0.109,-0.368 -0.121,-0.575 z m 2.351,1.989 h 0.746 l 0.024,-0.868 c 0.277,0.329 0.55,0.571 0.82,0.723 0.27,0.149 0.543,0.223 0.82,0.227 0.485,-0.004 0.852,-0.16 1.106,-0.473 0.25,-0.316 0.367,-0.785 0.351,-1.406 h -0.824 c 0.008,0.41 -0.055,0.711 -0.18,0.898 -0.132,0.184 -0.32,0.274 -0.57,0.278 -0.109,-0.004 -0.223,-0.024 -0.332,-0.059 -0.113,-0.043 -0.226,-0.106 -0.34,-0.188 -0.121,-0.089 -0.246,-0.199 -0.375,-0.332 -0.133,-0.136 -0.273,-0.296 -0.422,-0.484 v -3.023 h -0.824 z m 9.274,1.156 c -0.43,0.09 -0.797,0.137 -1.106,0.137 -0.734,0 -1.101,-0.387 -1.101,-1.153 v -0.824 h 2.062 v -0.68 h -2.062 v -3.343 h -0.829 v 3.343 h -1.515 v 0.68 h 1.515 v 0.777 c -0.003,1.25 0.649,1.879 1.957,1.879 0.325,0 0.684,-0.039 1.079,-0.113 z"
         style="fill:#666666;fill-opacity:1;fill-rule:nonzero;stroke:none"
         id="path80" />
      <path
         d="m 387.688,203.649 h -1.407 l -1.988,3.301 -1.992,-3.301 h -1.387 l 2.719,4.176 -2.5,3.992 h 1.316 l 1.871,-3.074 1.879,3.074 h 1.281 l -2.503,-3.941 z m 27.523,4.039 h -5.375 v 0.918 h 5.375 z m 0,-2.175 h -5.375 v 0.917 h 5.375 z m 7.07,-1.864 h -5.129 v 1.012 h 2.098 v 5.965 l -1.957,-1.063 -0.398,0.922 2.601,1.371 h 0.961 v -7.195 h 1.824 z m 4.289,1.969 c 0.141,0 0.274,-0.027 0.403,-0.082 0.125,-0.055 0.234,-0.133 0.332,-0.227 0.09,-0.097 0.164,-0.207 0.222,-0.332 0.051,-0.129 0.078,-0.265 0.082,-0.41 -0.004,-0.144 -0.031,-0.277 -0.082,-0.398 -0.058,-0.129 -0.132,-0.239 -0.222,-0.328 -0.098,-0.098 -0.207,-0.168 -0.332,-0.223 -0.129,-0.051 -0.262,-0.078 -0.403,-0.082 -0.148,0.004 -0.285,0.031 -0.406,0.082 -0.129,0.055 -0.238,0.125 -0.328,0.223 -0.098,0.089 -0.172,0.199 -0.223,0.328 -0.058,0.121 -0.086,0.254 -0.082,0.398 -0.004,0.145 0.024,0.281 0.082,0.41 0.051,0.125 0.125,0.235 0.223,0.332 0.09,0.094 0.199,0.172 0.328,0.227 0.121,0.055 0.258,0.082 0.406,0.082 z m 10.071,2.113 c -0.004,-0.629 -0.067,-1.199 -0.188,-1.711 -0.129,-0.515 -0.316,-0.957 -0.57,-1.324 -0.254,-0.371 -0.57,-0.656 -0.945,-0.859 -0.379,-0.199 -0.821,-0.297 -1.329,-0.301 -0.437,0.004 -0.836,0.082 -1.195,0.246 -0.359,0.164 -0.668,0.418 -0.918,0.762 -0.258,0.34 -0.453,0.773 -0.59,1.304 -0.136,0.524 -0.203,1.153 -0.203,1.883 0,0.621 0.063,1.192 0.188,1.711 0.125,0.516 0.312,0.957 0.57,1.328 0.25,0.368 0.566,0.653 0.945,0.856 0.379,0.199 0.821,0.301 1.328,0.304 0.434,-0.003 0.832,-0.085 1.192,-0.246 0.355,-0.168 0.66,-0.421 0.918,-0.761 0.25,-0.348 0.449,-0.785 0.59,-1.313 0.136,-0.531 0.203,-1.156 0.207,-1.879 z m -1.102,-0.039 c -0.004,0.141 -0.008,0.281 -0.016,0.422 -0.011,0.141 -0.023,0.277 -0.035,0.41 l -3.453,-2.57 c 0.059,-0.219 0.137,-0.418 0.235,-0.602 0.093,-0.183 0.21,-0.339 0.347,-0.468 0.133,-0.133 0.285,-0.235 0.461,-0.305 0.172,-0.074 0.371,-0.109 0.594,-0.109 0.281,0 0.539,0.066 0.769,0.203 0.231,0.136 0.426,0.34 0.59,0.613 0.16,0.266 0.285,0.602 0.375,1.008 0.086,0.398 0.129,0.867 0.133,1.398 z m -3.738,0.074 c -0.004,-0.128 0,-0.257 0.004,-0.386 0,-0.129 0.008,-0.254 0.023,-0.375 l 3.457,2.558 c -0.062,0.207 -0.144,0.403 -0.238,0.578 -0.102,0.176 -0.215,0.325 -0.344,0.454 -0.137,0.125 -0.289,0.226 -0.457,0.296 -0.176,0.071 -0.367,0.106 -0.574,0.11 -0.285,-0.004 -0.543,-0.074 -0.774,-0.207 -0.234,-0.141 -0.429,-0.344 -0.589,-0.617 -0.164,-0.274 -0.289,-0.614 -0.375,-1.012 -0.09,-0.406 -0.137,-0.871 -0.133,-1.399 z m 11.89,-0.035 c -0.003,-0.629 -0.066,-1.199 -0.187,-1.711 -0.129,-0.515 -0.316,-0.957 -0.57,-1.324 -0.254,-0.371 -0.571,-0.656 -0.946,-0.859 -0.379,-0.199 -0.82,-0.297 -1.328,-0.301 -0.437,0.004 -0.836,0.082 -1.195,0.246 -0.36,0.164 -0.668,0.418 -0.918,0.762 -0.258,0.34 -0.453,0.773 -0.59,1.304 -0.137,0.524 -0.203,1.153 -0.203,1.883 0,0.621 0.062,1.192 0.187,1.711 0.125,0.516 0.313,0.957 0.571,1.328 0.25,0.368 0.566,0.653 0.945,0.856 0.379,0.199 0.82,0.301 1.328,0.304 0.434,-0.003 0.832,-0.085 1.192,-0.246 0.355,-0.168 0.66,-0.421 0.918,-0.761 0.25,-0.348 0.449,-0.785 0.589,-1.313 0.137,-0.531 0.204,-1.156 0.207,-1.879 z m -1.101,-0.039 c -0.004,0.141 -0.008,0.281 -0.016,0.422 -0.011,0.141 -0.023,0.277 -0.035,0.41 l -3.453,-2.57 c 0.059,-0.219 0.137,-0.418 0.234,-0.602 0.094,-0.183 0.211,-0.339 0.348,-0.468 0.133,-0.133 0.285,-0.235 0.461,-0.305 0.172,-0.074 0.371,-0.109 0.594,-0.109 0.281,0 0.539,0.066 0.769,0.203 0.231,0.136 0.426,0.34 0.59,0.613 0.16,0.266 0.285,0.602 0.375,1.008 0.086,0.398 0.129,0.867 0.133,1.398 z m -3.738,0.074 c -0.004,-0.128 0,-0.257 0.003,-0.386 0,-0.129 0.008,-0.254 0.024,-0.375 l 3.457,2.558 c -0.063,0.207 -0.145,0.403 -0.238,0.578 -0.102,0.176 -0.215,0.325 -0.344,0.454 -0.137,0.125 -0.289,0.226 -0.457,0.296 -0.176,0.071 -0.367,0.106 -0.574,0.11 -0.285,-0.004 -0.543,-0.074 -0.774,-0.207 -0.234,-0.141 -0.429,-0.344 -0.59,-0.617 -0.164,-0.274 -0.289,-0.614 -0.375,-1.012 -0.089,-0.406 -0.136,-0.871 -0.132,-1.399 z m -51.164,-20.117 h -1.407 l -1.988,3.301 -1.992,-3.301 h -1.387 l 2.719,4.176 -2.5,3.992 h 1.316 l 1.871,-3.074 1.879,3.074 h 1.281 l -2.503,-3.941 z m 27.523,4.039 h -5.375 v 0.918 h 5.375 z m 0,-2.175 h -5.375 v 0.917 h 5.375 z m 7.328,2.218 c -0.004,-0.629 -0.066,-1.199 -0.187,-1.711 -0.129,-0.515 -0.317,-0.957 -0.571,-1.324 -0.254,-0.371 -0.57,-0.656 -0.945,-0.859 -0.379,-0.199 -0.82,-0.297 -1.328,-0.301 -0.438,0.004 -0.836,0.082 -1.195,0.246 -0.36,0.164 -0.668,0.418 -0.918,0.762 -0.258,0.34 -0.454,0.773 -0.59,1.304 -0.137,0.524 -0.203,1.153 -0.203,1.883 0,0.621 0.062,1.192 0.187,1.711 0.125,0.516 0.313,0.957 0.57,1.328 0.25,0.368 0.567,0.653 0.946,0.856 0.379,0.199 0.82,0.301 1.328,0.304 0.433,-0.003 0.832,-0.085 1.191,-0.246 0.356,-0.168 0.66,-0.421 0.918,-0.761 0.25,-0.348 0.449,-0.785 0.59,-1.313 0.137,-0.531 0.203,-1.156 0.207,-1.879 z m -1.101,-0.039 c -0.004,0.141 -0.008,0.281 -0.016,0.422 -0.012,0.141 -0.024,0.277 -0.035,0.41 l -3.453,-2.57 c 0.058,-0.219 0.136,-0.418 0.234,-0.602 0.094,-0.183 0.211,-0.339 0.348,-0.468 0.132,-0.133 0.285,-0.235 0.461,-0.305 0.171,-0.074 0.371,-0.109 0.593,-0.109 0.282,0 0.539,0.066 0.77,0.203 0.23,0.136 0.426,0.34 0.59,0.613 0.16,0.266 0.285,0.602 0.375,1.008 0.086,0.398 0.129,0.867 0.133,1.398 z m -3.739,0.074 c -0.004,-0.128 0,-0.257 0.004,-0.386 0,-0.129 0.008,-0.254 0.024,-0.375 l 3.457,2.558 c -0.063,0.207 -0.145,0.403 -0.239,0.578 -0.101,0.176 -0.215,0.325 -0.343,0.454 -0.137,0.125 -0.289,0.226 -0.457,0.296 -0.176,0.071 -0.368,0.106 -0.575,0.11 -0.285,-0.004 -0.543,-0.074 -0.773,-0.207 -0.234,-0.141 -0.43,-0.344 -0.59,-0.617 -0.164,-0.274 -0.289,-0.614 -0.375,-1.012 -0.09,-0.406 -0.137,-0.871 -0.133,-1.399 z m 8.871,-2.148 c 0.141,0 0.274,-0.027 0.403,-0.082 0.125,-0.055 0.234,-0.133 0.332,-0.227 0.09,-0.097 0.164,-0.207 0.222,-0.332 0.051,-0.129 0.078,-0.265 0.082,-0.41 -0.004,-0.144 -0.031,-0.277 -0.082,-0.398 -0.058,-0.129 -0.132,-0.239 -0.222,-0.328 -0.098,-0.098 -0.207,-0.168 -0.332,-0.223 -0.129,-0.051 -0.262,-0.078 -0.403,-0.082 -0.148,0.004 -0.285,0.031 -0.406,0.082 -0.129,0.055 -0.238,0.125 -0.328,0.223 -0.098,0.089 -0.172,0.199 -0.223,0.328 -0.058,0.121 -0.086,0.254 -0.082,0.398 -0.004,0.145 0.024,0.281 0.082,0.41 0.051,0.125 0.125,0.235 0.223,0.332 0.09,0.094 0.199,0.172 0.328,0.227 0.121,0.055 0.258,0.082 0.406,0.082 z m 10.071,2.113 c -0.004,-0.629 -0.067,-1.199 -0.188,-1.711 -0.129,-0.515 -0.316,-0.957 -0.57,-1.324 -0.254,-0.371 -0.57,-0.656 -0.945,-0.859 -0.379,-0.199 -0.821,-0.297 -1.329,-0.301 -0.437,0.004 -0.836,0.082 -1.195,0.246 -0.359,0.164 -0.668,0.418 -0.918,0.762 -0.258,0.34 -0.453,0.773 -0.59,1.304 -0.136,0.524 -0.203,1.153 -0.203,1.883 0,0.621 0.063,1.192 0.188,1.711 0.125,0.516 0.312,0.957 0.57,1.328 0.25,0.368 0.566,0.653 0.945,0.856 0.379,0.199 0.821,0.301 1.328,0.304 0.434,-0.003 0.832,-0.085 1.192,-0.246 0.355,-0.168 0.66,-0.421 0.918,-0.761 0.25,-0.348 0.449,-0.785 0.59,-1.313 0.136,-0.531 0.203,-1.156 0.207,-1.879 z m -1.102,-0.039 c -0.004,0.141 -0.008,0.281 -0.016,0.422 -0.011,0.141 -0.023,0.277 -0.035,0.41 l -3.453,-2.57 c 0.059,-0.219 0.137,-0.418 0.235,-0.602 0.093,-0.183 0.21,-0.339 0.347,-0.468 0.133,-0.133 0.285,-0.235 0.461,-0.305 0.172,-0.074 0.371,-0.109 0.594,-0.109 0.281,0 0.539,0.066 0.769,0.203 0.231,0.136 0.426,0.34 0.59,0.613 0.16,0.266 0.285,0.602 0.375,1.008 0.086,0.398 0.129,0.867 0.133,1.398 z m -3.738,0.074 c -0.004,-0.128 0,-0.257 0.004,-0.386 0,-0.129 0.008,-0.254 0.023,-0.375 l 3.457,2.558 c -0.062,0.207 -0.144,0.403 -0.238,0.578 -0.102,0.176 -0.215,0.325 -0.344,0.454 -0.137,0.125 -0.289,0.226 -0.457,0.296 -0.176,0.071 -0.367,0.106 -0.574,0.11 -0.285,-0.004 -0.543,-0.074 -0.774,-0.207 -0.234,-0.141 -0.429,-0.344 -0.589,-0.617 -0.164,-0.274 -0.289,-0.614 -0.375,-1.012 -0.09,-0.406 -0.137,-0.871 -0.133,-1.399 z m 11.633,-4.117 h -5.129 v 1.012 h 2.097 v 5.965 l -1.957,-1.063 -0.398,0.922 2.601,1.371 h 0.961 v -7.195 h 1.825 z m -50.723,16.547 c -0.004,-0.422 -0.063,-0.789 -0.176,-1.098 -0.121,-0.316 -0.285,-0.574 -0.488,-0.777 -0.211,-0.207 -0.453,-0.363 -0.731,-0.465 -0.285,-0.101 -0.589,-0.148 -0.914,-0.152 -0.152,0.004 -0.3,0.012 -0.445,0.023 -0.152,0.02 -0.305,0.043 -0.453,0.078 v -1.968 h -0.816 v 6.629 h 0.726 l 0.051,-0.789 c 0.23,0.32 0.48,0.546 0.75,0.675 0.262,0.129 0.551,0.192 0.863,0.196 0.266,-0.004 0.5,-0.059 0.707,-0.168 0.199,-0.114 0.371,-0.274 0.512,-0.477 0.137,-0.207 0.238,-0.453 0.308,-0.738 0.067,-0.293 0.102,-0.613 0.106,-0.969 z m -0.836,-0.039 c 0,0.242 -0.02,0.469 -0.055,0.68 -0.039,0.203 -0.097,0.383 -0.172,0.531 -0.082,0.145 -0.179,0.258 -0.3,0.344 -0.121,0.082 -0.266,0.125 -0.434,0.125 -0.105,0 -0.211,-0.02 -0.316,-0.051 -0.106,-0.035 -0.215,-0.09 -0.328,-0.164 -0.118,-0.078 -0.239,-0.18 -0.364,-0.305 -0.125,-0.129 -0.261,-0.285 -0.402,-0.469 v -2.285 c 0.144,-0.066 0.305,-0.113 0.473,-0.148 0.164,-0.035 0.324,-0.055 0.488,-0.051 0.437,-0.004 0.785,0.145 1.035,0.445 0.25,0.297 0.375,0.746 0.375,1.348 z m 6.078,0.203 c -0.004,-0.117 -0.008,-0.215 -0.008,-0.289 -0.007,-0.082 -0.011,-0.156 -0.011,-0.223 h -3.305 c -0.004,-0.484 0.133,-0.855 0.402,-1.109 0.266,-0.262 0.653,-0.391 1.164,-0.387 0.133,-0.004 0.27,0.004 0.41,0.016 0.137,0.012 0.27,0.027 0.399,0.047 0.125,0.015 0.246,0.035 0.367,0.062 0.113,0.02 0.223,0.047 0.328,0.078 v -0.671 c -0.226,-0.067 -0.476,-0.114 -0.754,-0.153 -0.281,-0.035 -0.57,-0.054 -0.867,-0.058 -0.406,0.004 -0.754,0.054 -1.043,0.164 -0.293,0.105 -0.531,0.265 -0.715,0.476 -0.187,0.207 -0.324,0.461 -0.414,0.766 -0.09,0.297 -0.136,0.641 -0.133,1.023 -0.003,0.328 0.047,0.641 0.145,0.938 0.094,0.297 0.23,0.555 0.418,0.781 0.18,0.219 0.406,0.399 0.672,0.531 0.265,0.129 0.566,0.192 0.906,0.196 0.324,-0.004 0.613,-0.055 0.871,-0.157 0.25,-0.105 0.465,-0.25 0.637,-0.437 0.172,-0.188 0.301,-0.418 0.394,-0.688 0.086,-0.273 0.133,-0.574 0.137,-0.906 z m -0.851,0.117 c 0.007,0.207 -0.012,0.399 -0.059,0.575 -0.055,0.171 -0.133,0.32 -0.234,0.449 -0.11,0.121 -0.239,0.219 -0.391,0.293 -0.16,0.066 -0.34,0.101 -0.543,0.105 -0.18,-0.004 -0.344,-0.039 -0.488,-0.105 -0.149,-0.071 -0.274,-0.168 -0.379,-0.289 -0.11,-0.129 -0.195,-0.278 -0.258,-0.453 -0.066,-0.176 -0.109,-0.368 -0.121,-0.575 z m 2.351,1.989 h 0.746 l 0.024,-0.868 c 0.277,0.329 0.55,0.571 0.82,0.723 0.27,0.149 0.543,0.223 0.82,0.227 0.485,-0.004 0.852,-0.16 1.106,-0.473 0.25,-0.316 0.367,-0.785 0.351,-1.406 h -0.824 c 0.008,0.41 -0.055,0.711 -0.18,0.898 -0.132,0.184 -0.32,0.274 -0.57,0.278 -0.109,-0.004 -0.223,-0.024 -0.332,-0.059 -0.113,-0.043 -0.226,-0.106 -0.34,-0.188 -0.121,-0.089 -0.246,-0.199 -0.375,-0.332 -0.133,-0.136 -0.273,-0.296 -0.422,-0.484 v -3.023 h -0.824 z m 9.274,1.156 c -0.43,0.09 -0.797,0.137 -1.106,0.137 -0.734,0 -1.101,-0.387 -1.101,-1.153 v -0.824 h 2.062 v -0.68 h -2.062 v -3.343 h -0.829 v 3.343 h -1.515 v 0.68 h 1.515 v 0.777 c -0.003,1.25 0.649,1.879 1.957,1.879 0.325,0 0.684,-0.039 1.079,-0.113 z M 390.383,191.29 h -1.391 v 0.672 h 2.219 v -5.946 h 1.398 v -0.679 h -3.773 v 0.679 h 1.547 z m 7.785,-3.563 c -0.004,-0.367 -0.055,-0.703 -0.156,-1.004 -0.106,-0.308 -0.254,-0.57 -0.446,-0.785 -0.195,-0.218 -0.429,-0.386 -0.707,-0.508 -0.281,-0.117 -0.597,-0.175 -0.945,-0.179 -0.34,0.004 -0.644,0.054 -0.91,0.156 -0.27,0.106 -0.496,0.258 -0.68,0.465 -0.187,0.199 -0.328,0.453 -0.426,0.754 -0.101,0.297 -0.152,0.64 -0.148,1.035 -0.004,0.363 0.051,0.695 0.156,1 0.102,0.297 0.25,0.559 0.446,0.777 0.191,0.219 0.425,0.387 0.707,0.508 0.277,0.117 0.593,0.176 0.949,0.18 0.332,-0.004 0.633,-0.055 0.902,-0.156 0.266,-0.106 0.492,-0.258 0.68,-0.461 0.183,-0.204 0.328,-0.454 0.43,-0.75 0.097,-0.301 0.144,-0.645 0.148,-1.032 z m -0.836,-0.039 c -0.004,0.289 -0.035,0.543 -0.098,0.762 -0.062,0.215 -0.156,0.398 -0.273,0.543 -0.121,0.145 -0.266,0.254 -0.434,0.328 -0.172,0.074 -0.359,0.109 -0.566,0.113 -0.246,-0.004 -0.457,-0.05 -0.629,-0.144 -0.176,-0.098 -0.316,-0.227 -0.426,-0.383 -0.113,-0.164 -0.195,-0.348 -0.242,-0.555 -0.055,-0.214 -0.078,-0.437 -0.078,-0.664 0,-0.293 0.031,-0.547 0.094,-0.761 0.062,-0.223 0.152,-0.403 0.273,-0.547 0.117,-0.149 0.262,-0.258 0.434,-0.328 0.168,-0.075 0.359,-0.114 0.574,-0.11 0.238,-0.004 0.445,0.043 0.621,0.141 0.172,0.094 0.316,0.222 0.43,0.383 0.109,0.156 0.187,0.339 0.242,0.554 0.047,0.207 0.074,0.43 0.078,0.668 z m 5.75,-1.066 c 0,-0.172 -0.031,-0.32 -0.086,-0.449 -0.058,-0.133 -0.133,-0.25 -0.23,-0.348 -0.098,-0.105 -0.211,-0.191 -0.336,-0.262 -0.129,-0.074 -0.266,-0.133 -0.41,-0.175 -0.149,-0.047 -0.297,-0.079 -0.45,-0.102 -0.152,-0.02 -0.304,-0.031 -0.449,-0.035 -0.32,0.004 -0.613,0.019 -0.879,0.043 -0.269,0.031 -0.531,0.074 -0.785,0.136 v 0.75 c 0.273,-0.078 0.547,-0.14 0.82,-0.179 0.27,-0.043 0.543,-0.063 0.813,-0.059 0.39,-0.004 0.68,0.051 0.867,0.156 0.188,0.106 0.281,0.258 0.281,0.457 0,0.083 -0.015,0.157 -0.047,0.227 -0.031,0.066 -0.086,0.129 -0.16,0.191 -0.082,0.059 -0.203,0.125 -0.363,0.192 -0.168,0.062 -0.391,0.137 -0.672,0.226 -0.215,0.059 -0.414,0.129 -0.59,0.211 -0.183,0.078 -0.336,0.172 -0.465,0.286 -0.132,0.105 -0.238,0.234 -0.308,0.382 -0.078,0.145 -0.113,0.317 -0.113,0.52 0,0.129 0.027,0.273 0.089,0.433 0.059,0.153 0.164,0.297 0.313,0.434 0.144,0.133 0.344,0.246 0.598,0.336 0.246,0.086 0.558,0.129 0.937,0.133 0.18,-0.004 0.383,-0.012 0.609,-0.031 0.223,-0.02 0.457,-0.055 0.707,-0.102 v -0.727 c -0.261,0.059 -0.503,0.106 -0.73,0.137 -0.23,0.027 -0.43,0.039 -0.598,0.043 -0.207,-0.004 -0.379,-0.019 -0.515,-0.047 -0.141,-0.035 -0.254,-0.078 -0.336,-0.129 -0.09,-0.058 -0.149,-0.121 -0.184,-0.191 -0.039,-0.074 -0.058,-0.152 -0.055,-0.234 -0.003,-0.09 0.012,-0.168 0.047,-0.235 0.032,-0.07 0.094,-0.137 0.184,-0.199 0.086,-0.066 0.207,-0.129 0.371,-0.191 0.156,-0.063 0.367,-0.133 0.625,-0.207 0.277,-0.083 0.512,-0.168 0.703,-0.254 0.188,-0.094 0.34,-0.192 0.461,-0.297 0.117,-0.114 0.203,-0.239 0.258,-0.371 0.051,-0.141 0.078,-0.297 0.078,-0.469 z m 5.289,0 c 0,-0.172 -0.031,-0.32 -0.086,-0.449 -0.058,-0.133 -0.133,-0.25 -0.23,-0.348 -0.098,-0.105 -0.211,-0.191 -0.336,-0.262 -0.129,-0.074 -0.266,-0.133 -0.41,-0.175 -0.149,-0.047 -0.297,-0.079 -0.45,-0.102 -0.152,-0.02 -0.304,-0.031 -0.449,-0.035 -0.32,0.004 -0.613,0.019 -0.879,0.043 -0.269,0.031 -0.531,0.074 -0.785,0.136 v 0.75 c 0.274,-0.078 0.547,-0.14 0.82,-0.179 0.27,-0.043 0.543,-0.063 0.813,-0.059 0.391,-0.004 0.68,0.051 0.867,0.156 0.188,0.106 0.281,0.258 0.281,0.457 0,0.083 -0.015,0.157 -0.047,0.227 -0.031,0.066 -0.085,0.129 -0.16,0.191 -0.082,0.059 -0.203,0.125 -0.363,0.192 -0.168,0.062 -0.391,0.137 -0.672,0.226 -0.215,0.059 -0.414,0.129 -0.59,0.211 -0.183,0.078 -0.336,0.172 -0.465,0.286 -0.132,0.105 -0.238,0.234 -0.308,0.382 -0.078,0.145 -0.113,0.317 -0.113,0.52 0,0.129 0.027,0.273 0.089,0.433 0.059,0.153 0.165,0.297 0.313,0.434 0.144,0.133 0.344,0.246 0.598,0.336 0.246,0.086 0.558,0.129 0.937,0.133 0.18,-0.004 0.383,-0.012 0.609,-0.031 0.223,-0.02 0.458,-0.055 0.708,-0.102 v -0.727 c -0.262,0.059 -0.504,0.106 -0.731,0.137 -0.23,0.027 -0.43,0.039 -0.598,0.043 -0.207,-0.004 -0.379,-0.019 -0.515,-0.047 -0.141,-0.035 -0.254,-0.078 -0.336,-0.129 -0.09,-0.058 -0.149,-0.121 -0.184,-0.191 -0.039,-0.074 -0.058,-0.152 -0.054,-0.234 -0.004,-0.09 0.011,-0.168 0.046,-0.235 0.032,-0.07 0.094,-0.137 0.184,-0.199 0.086,-0.066 0.207,-0.129 0.371,-0.191 0.156,-0.063 0.367,-0.133 0.625,-0.207 0.277,-0.083 0.512,-0.168 0.703,-0.254 0.188,-0.094 0.34,-0.192 0.461,-0.297 0.117,-0.114 0.203,-0.239 0.258,-0.371 0.051,-0.141 0.078,-0.297 0.078,-0.469 z"
         style="fill:#666666;fill-opacity:1;fill-rule:nonzero;stroke:none"
         id="path82" />
      <g
         id="g84"
         transform="matrix(1,0,0,-1,0,279.20001)">
        <path
           d="m 474.215,121.281 c 0,37.922 -30.969,68.664 -69.168,68.664 -38.199,0 -69.164,-30.742 -69.164,-68.664 0,-37.922 30.965,-68.664 69.164,-68.664 38.199,0 69.168,30.742 69.168,68.664 z"
           style="fill:none;stroke:#ffffff;stroke-width:20;stroke-linecap:round;stroke-linejoin:round;stroke-miterlimit:3;stroke-dasharray:none;stroke-opacity:1"
           id="path86" />
      </g>
      <path
         d="m 463.121,88.638 12.262,12.261 45.816,-45.816 -12.261,-12.262 z"
         style="fill:#ffffff;fill-opacity:1;fill-rule:nonzero;stroke:none"
         id="path88" />
      <path
         d="m 454.246,102.204 7.731,7.726 13.347,-13.347 -7.726,-7.731 z"
         style="fill:#ffffff;fill-opacity:1;fill-rule:nonzero;stroke:none"
         id="path90" />
      <path
         d="m 155.125,126.059 c 0,-15.078 -5.375,-26.488 -16.121,-34.234 -9.496,-6.906 -22.336,-10.359 -38.524,-10.363 -7.75,0.004 -17.976,2.093 -30.675,6.281 l 2.093,19.891 c 11.797,-4.817 22.161,-7.227 31.094,-7.223 7.254,-0.004 13.676,1.848 19.262,5.547 6.769,4.535 10.152,10.816 10.156,18.844 -0.004,9.07 -5.586,16.711 -16.75,22.925 -10.332,5.371 -20.625,10.782 -30.883,16.227 -11.168,7.887 -16.754,18.426 -16.75,31.617 -0.004,12.84 4.637,22.957 13.922,30.359 8.719,6.907 20.098,10.364 34.129,10.364 11.235,0 21.875,-1.781 31.93,-5.34 l -3.035,-19.785 c -10.543,4.187 -19.895,6.281 -28.059,6.281 -17.449,0 -26.172,-6.668 -26.172,-19.996 0,-7.539 5.582,-14.309 16.75,-20.309 19.332,-10.332 29.625,-15.984 30.883,-16.957 11.164,-8.66 16.75,-20.035 16.75,-34.129 z m 151.797,34.129 c -0.004,-24.711 -7.156,-43.66 -21.461,-56.847 -13.82,-12.844 -33.258,-19.262 -58.309,-19.262 h -44.179 v 149.703 h 44.179 c 22.887,-0.004 41.731,-6.527 56.528,-19.578 15.492,-13.539 23.238,-31.547 23.242,-54.016 z m -22.719,-0.84 c 0,17.028 -5.269,30.637 -15.805,40.829 -10.05,9.769 -23.031,14.652 -38.945,14.656 h -25.019 v -111.91 h 22.507 c 38.172,0 57.262,18.808 57.262,56.425 z"
         style="fill:#ffffff;fill-opacity:1;fill-rule:nonzero;stroke:none"
         id="path92" />
      <path
         d="m 155.125,126.059 c 0,-15.078 -5.375,-26.488 -16.121,-34.234 -9.496,-6.906 -22.336,-10.359 -38.524,-10.363 -7.75,0.004 -17.976,2.093 -30.675,6.281 l 2.093,19.891 c 11.797,-4.817 22.161,-7.227 31.094,-7.223 7.254,-0.004 13.676,1.848 19.262,5.547 6.769,4.535 10.152,10.816 10.156,18.844 -0.004,9.07 -5.586,16.711 -16.75,22.925 -10.332,5.371 -20.625,10.782 -30.883,16.227 -11.168,7.887 -16.754,18.426 -16.75,31.617 -0.004,12.84 4.637,22.957 13.922,30.359 8.719,6.907 20.098,10.364 34.129,10.364 11.235,0 21.875,-1.781 31.93,-5.34 l -3.035,-19.785 c -10.543,4.187 -19.895,6.281 -28.059,6.281 -17.449,0 -26.172,-6.668 -26.172,-19.996 0,-7.539 5.582,-14.309 16.75,-20.309 19.332,-10.332 29.625,-15.984 30.883,-16.957 11.164,-8.66 16.75,-20.035 16.75,-34.129 z m 151.797,34.129 c -0.004,-24.711 -7.156,-43.66 -21.461,-56.847 -13.82,-12.844 -33.258,-19.262 -58.309,-19.262 h -44.179 v 149.703 h 44.179 c 22.887,-0.004 41.731,-6.527 56.528,-19.578 15.492,-13.539 23.238,-31.547 23.242,-54.016 z m -22.719,-0.84 c 0,17.028 -5.269,30.637 -15.805,40.829 -10.05,9.769 -23.031,14.652 -38.945,14.656 h -25.019 v -111.91 h 22.507 c 38.172,0 57.262,18.808 57.262,56.425 z M 85.895,50.497 c -0.004,-2.156 -0.77,-3.785 -2.301,-4.891 -1.36,-0.988 -3.192,-1.48 -5.5,-1.48 -1.11,0 -2.571,0.297 -4.383,0.898 l 0.301,2.84 c 1.679,-0.687 3.16,-1.031 4.441,-1.031 1.031,0 1.949,0.262 2.75,0.793 0.965,0.644 1.449,1.543 1.449,2.691 0,1.293 -0.797,2.383 -2.39,3.274 -1.477,0.761 -2.949,1.535 -4.41,2.316 -1.602,1.121 -2.399,2.625 -2.395,4.512 -0.004,1.832 0.66,3.277 1.988,4.336 1.246,0.984 2.871,1.476 4.875,1.48 1.602,-0.004 3.121,-0.258 4.559,-0.762 l -0.434,-2.824 c -1.507,0.594 -2.843,0.895 -4.007,0.895 -2.493,0 -3.739,-0.953 -3.735,-2.856 -0.004,-1.078 0.793,-2.043 2.391,-2.898 2.758,-1.477 4.226,-2.285 4.41,-2.422 1.59,-1.238 2.387,-2.863 2.391,-4.871 z m 18.734,1.808 c 0,-2.273 -0.738,-4.195 -2.215,-5.757 -1.508,-1.618 -3.414,-2.422 -5.711,-2.422 -2.324,0 -4.242,0.804 -5.754,2.422 -1.476,1.562 -2.211,3.484 -2.211,5.757 0,2.391 0.735,4.348 2.203,5.879 1.469,1.528 3.387,2.293 5.762,2.297 2.348,-0.004 4.258,-0.769 5.727,-2.297 1.465,-1.531 2.199,-3.488 2.199,-5.879 z m -3.066,0 c -0.004,1.571 -0.434,2.915 -1.286,4.036 -0.922,1.203 -2.113,1.804 -3.574,1.808 -1.488,-0.004 -2.691,-0.605 -3.617,-1.808 -0.859,-1.121 -1.289,-2.465 -1.285,-4.036 -0.004,-1.554 0.39,-2.878 1.183,-3.964 0.895,-1.258 2.133,-1.883 3.719,-1.883 1.563,0 2.797,0.625 3.695,1.883 0.774,1.086 1.161,2.41 1.165,3.964 z m 15.964,15.336 -0.121,-2.316 c -0.34,0.117 -0.797,0.176 -1.375,0.18 -1.156,-0.004 -1.941,-0.375 -2.347,-1.11 -0.301,-0.523 -0.45,-1.386 -0.446,-2.597 v -1.692 h 4.141 V 57.79 h -4.141 V 44.501 h -2.871 V 57.79 h -3.676 v 2.316 h 3.676 v 1.449 c -0.004,2.083 0.336,3.602 1.016,4.559 0.816,1.145 2.222,1.719 4.215,1.723 0.507,-0.004 1.148,-0.071 1.929,-0.196 z m 11.407,-23.082 c -1,-0.289 -1.817,-0.433 -2.454,-0.433 -3.199,0 -4.796,1.515 -4.796,4.547 v 9.117 h -3.528 v 2.316 h 3.528 v 3.617 l 2.867,0.926 v -4.543 h 4.14 V 57.79 h -4.14 v -8.551 c -0.004,-0.871 0.238,-1.559 0.719,-2.062 0.445,-0.481 1.011,-0.719 1.703,-0.719 0.738,0 1.39,0.183 1.961,0.555 z m 26.039,15.547 -5.008,-15.605 h -3.348 l -4.039,13.109 h -0.058 l -3.946,-13.109 h -3.347 l -5.008,15.605 h 3.152 l 3.574,-12.914 h 0.059 l 3.976,12.914 h 3.407 l 3.918,-12.914 h 0.058 l 3.797,12.914 z m 15.125,-15.605 h -2.688 v 2.019 h -0.062 c -1.141,-1.597 -2.754,-2.394 -4.844,-2.394 -1.766,0 -3.141,0.387 -4.125,1.168 -1.066,0.832 -1.598,2.07 -1.598,3.707 0,1.773 0.836,3.117 2.512,4.035 1.332,0.734 2.918,1.102 4.754,1.105 1.281,-0.003 2.297,-0.023 3.047,-0.058 0,1.39 -0.281,2.41 -0.836,3.051 -0.613,0.675 -1.617,1.011 -3.02,1.015 -1.758,-0.004 -3.269,-0.531 -4.531,-1.586 l -0.148,2.453 c 1.64,0.973 3.355,1.461 5.144,1.465 2.188,-0.004 3.793,-0.547 4.813,-1.629 0.972,-1.05 1.461,-2.66 1.464,-4.828 v -6.461 c -0.003,-1.437 0.036,-2.457 0.118,-3.062 z m -3.004,6.07 v 1.375 c -0.199,-0.004 -0.504,0.004 -0.91,0.027 -0.411,0.016 -0.715,0.028 -0.914,0.032 -3.622,-0.004 -5.43,-1.004 -5.426,-3.004 -0.004,-0.77 0.316,-1.399 0.957,-1.883 0.566,-0.441 1.219,-0.66 1.957,-0.66 1.375,0 2.449,0.394 3.23,1.183 0.735,0.735 1.106,1.711 1.106,2.93 z m 16.504,7.129 c -0.45,0.176 -0.985,0.266 -1.598,0.27 -1.301,-0.004 -2.336,-0.579 -3.105,-1.719 -0.774,-1.149 -1.157,-2.696 -1.157,-4.649 v -7.101 h -2.867 v 15.605 h 2.688 V 57.7 h 0.062 c 0.387,0.816 0.957,1.484 1.711,2.004 0.75,0.516 1.539,0.773 2.367,0.777 0.547,-0.004 1.18,-0.074 1.899,-0.211 z m 16.324,-6.039 h -11.137 c -0.004,-1.508 0.516,-2.762 1.555,-3.754 0.984,-0.969 2.18,-1.449 3.59,-1.449 0.863,0 1.816,0.187 2.855,0.57 0.883,0.313 1.535,0.649 1.957,1 v -2.883 c -1.875,-0.679 -3.519,-1.019 -4.933,-1.019 -2.692,0 -4.731,0.777 -6.114,2.332 -1.316,1.453 -1.972,3.496 -1.972,6.129 0,2.32 0.672,4.215 2.015,5.687 1.344,1.469 3.114,2.203 5.309,2.207 4.582,-0.004 6.871,-2.941 6.875,-8.82 z m -3.051,2.152 c -0.004,1.235 -0.344,2.258 -1.016,3.067 -0.718,0.843 -1.671,1.265 -2.867,1.269 -1.297,-0.004 -2.324,-0.472 -3.082,-1.406 -0.617,-0.781 -0.992,-1.758 -1.121,-2.93 z m 33.215,1.555 c 0,-3.531 -1.023,-6.238 -3.063,-8.117 -1.976,-1.836 -4.75,-2.75 -8.328,-2.75 h -6.304 v 21.375 h 6.304 c 3.27,0 5.961,-0.934 8.075,-2.793 2.21,-1.938 3.316,-4.508 3.316,-7.715 z m -3.242,-0.121 c -0.004,2.43 -0.758,4.371 -2.258,5.832 -1.438,1.391 -3.289,2.09 -5.559,2.094 h -3.574 V 47.192 h 3.215 c 5.445,-0.004 8.172,2.684 8.176,8.055 z m 20.734,-3.586 h -11.137 c -0.003,-1.508 0.516,-2.762 1.555,-3.754 0.984,-0.969 2.18,-1.449 3.59,-1.449 0.863,0 1.816,0.187 2.855,0.57 0.883,0.313 1.536,0.649 1.957,1 v -2.883 c -1.875,-0.679 -3.519,-1.019 -4.933,-1.019 -2.692,0 -4.731,0.777 -6.113,2.332 -1.317,1.453 -1.973,3.496 -1.973,6.129 0,2.32 0.672,4.215 2.016,5.687 1.343,1.469 3.113,2.203 5.308,2.207 4.582,-0.004 6.871,-2.941 6.875,-8.82 z m -3.051,2.152 c -0.004,1.235 -0.343,2.258 -1.015,3.067 -0.719,0.843 -1.672,1.265 -2.867,1.269 -1.297,-0.004 -2.325,-0.472 -3.082,-1.406 -0.618,-0.781 -0.993,-1.758 -1.122,-2.93 z m 15.352,-4.812 c -0.004,-1.578 -0.563,-2.805 -1.676,-3.68 -1.008,-0.797 -2.269,-1.195 -3.781,-1.195 -1.789,0 -3.211,0.289 -4.274,0.867 l 0.149,2.57 c 1.133,-0.738 2.332,-1.105 3.59,-1.105 0.773,0 1.426,0.164 1.957,0.496 0.648,0.387 0.972,0.969 0.972,1.746 0,0.754 -0.586,1.453 -1.75,2.094 -1.089,0.586 -2.175,1.172 -3.257,1.765 -1.172,0.832 -1.754,1.875 -1.75,3.121 -0.004,1.555 0.523,2.758 1.586,3.618 0.98,0.785 2.285,1.179 3.914,1.183 1.011,-0.004 2.211,-0.207 3.589,-0.613 l -0.242,-2.512 c -0.308,0.188 -0.812,0.371 -1.508,0.555 -0.664,0.156 -1.171,0.234 -1.527,0.238 -0.789,-0.004 -1.43,-0.156 -1.926,-0.465 -0.558,-0.339 -0.84,-0.82 -0.836,-1.433 -0.004,-0.852 0.586,-1.578 1.762,-2.184 1.086,-0.558 2.172,-1.117 3.258,-1.672 1.164,-0.843 1.746,-1.972 1.75,-3.394 z m 6.906,14.605 h -3.242 v 3.242 h 3.242 z m -0.18,-19.105 h -2.886 v 15.605 h 2.886 z m 19.047,0.672 c -0.004,-4.981 -2.683,-7.469 -8.043,-7.473 -1.648,0.004 -3.515,0.363 -5.605,1.074 l 0.312,2.664 c 2.039,-0.933 3.914,-1.402 5.622,-1.406 1.511,0.004 2.699,0.484 3.558,1.438 0.856,0.96 1.281,2.261 1.285,3.914 v 1.539 h -0.058 c -1.219,-1.618 -2.961,-2.422 -5.235,-2.422 -2.133,0 -3.808,0.777 -5.023,2.332 -1.106,1.406 -1.656,3.187 -1.656,5.351 0,2.2 0.57,4.082 1.718,5.649 1.289,1.762 3.043,2.644 5.262,2.648 2.508,-0.004 4.223,-0.898 5.141,-2.691 h 0.062 v 2.316 h 2.66 z m -2.871,6.953 c -0.004,1.719 -0.383,3.129 -1.136,4.23 -0.832,1.192 -1.973,1.789 -3.422,1.793 -1.36,-0.004 -2.45,-0.636 -3.274,-1.898 -0.722,-1.133 -1.082,-2.438 -1.078,-3.918 -0.004,-1.528 0.387,-2.813 1.168,-3.856 0.813,-1.097 1.871,-1.644 3.184,-1.644 1.32,0 2.418,0.515 3.289,1.555 0.843,1 1.265,2.246 1.269,3.738 z m 21.586,-7.625 h -2.871 v 8.086 c -0.004,1.89 -0.242,3.265 -0.719,4.125 -0.511,0.926 -1.375,1.402 -2.586,1.437 -1.578,0.047 -2.777,-0.535 -3.601,-1.75 -0.77,-1.129 -1.152,-2.687 -1.152,-4.679 v -7.219 h -2.868 v 15.605 h 2.778 v -2.465 h 0.062 c 0.422,0.864 1.106,1.555 2.047,2.071 0.934,0.511 1.953,0.765 3.063,0.769 3.894,-0.004 5.843,-2.234 5.847,-6.699 z m 25.68,0 h -2.688 v 2.019 h -0.062 c -1.141,-1.597 -2.754,-2.394 -4.844,-2.394 -1.765,0 -3.14,0.387 -4.125,1.168 -1.066,0.832 -1.598,2.07 -1.598,3.707 0,1.773 0.836,3.117 2.512,4.035 1.332,0.734 2.918,1.102 4.754,1.105 1.281,-0.003 2.297,-0.023 3.047,-0.058 0,1.39 -0.281,2.41 -0.836,3.051 -0.613,0.675 -1.617,1.011 -3.019,1.015 -1.758,-0.004 -3.27,-0.531 -4.532,-1.586 l -0.148,2.453 c 1.64,0.973 3.355,1.461 5.144,1.465 2.188,-0.004 3.793,-0.547 4.813,-1.629 0.973,-1.05 1.461,-2.66 1.465,-4.828 v -6.461 c -0.004,-1.437 0.035,-2.457 0.117,-3.062 z m -3.004,6.07 v 1.375 c -0.199,-0.004 -0.504,0.004 -0.91,0.027 -0.41,0.016 -0.715,0.028 -0.914,0.032 -3.621,-0.004 -5.43,-1.004 -5.426,-3.004 -0.004,-0.77 0.316,-1.399 0.957,-1.883 0.566,-0.441 1.219,-0.66 1.957,-0.66 1.375,0 2.449,0.394 3.231,1.183 0.734,0.735 1.105,1.711 1.105,2.93 z m 21.57,-6.07 h -2.871 v 8.086 c -0.004,1.89 -0.242,3.265 -0.719,4.125 -0.511,0.926 -1.375,1.402 -2.585,1.437 -1.579,0.047 -2.778,-0.535 -3.602,-1.75 -0.77,-1.129 -1.152,-2.687 -1.152,-4.679 v -7.219 h -2.868 v 15.605 h 2.778 v -2.465 h 0.062 c 0.422,0.864 1.106,1.555 2.047,2.071 0.934,0.511 1.953,0.765 3.063,0.769 3.894,-0.004 5.843,-2.234 5.847,-6.699 z m 18.715,0 h -2.75 V 46.7 h -0.062 c -1.129,-1.719 -2.903,-2.574 -5.321,-2.574 -2.218,0 -3.925,0.875 -5.129,2.633 -1.054,1.531 -1.582,3.476 -1.582,5.828 0,2.23 0.555,4.066 1.672,5.515 1.211,1.582 2.903,2.375 5.071,2.379 2.41,-0.004 4.132,-0.84 5.171,-2.511 h 0.059 v 9.492 h 2.871 z m -2.871,7.773 c -0.004,1.59 -0.383,2.934 -1.137,4.035 -0.859,1.223 -2.019,1.836 -3.484,1.84 -1.457,-0.004 -2.563,-0.609 -3.316,-1.824 -0.653,-1.039 -0.977,-2.359 -0.973,-3.961 -0.004,-1.457 0.332,-2.75 1.004,-3.871 0.797,-1.359 1.902,-2.035 3.316,-2.035 1.492,0 2.66,0.64 3.512,1.93 0.715,1.093 1.074,2.39 1.078,3.886 z m 36.027,2.914 c -0.004,-2.402 -0.504,-4.492 -1.504,-6.261 -1,-1.778 -2.417,-3.067 -4.253,-3.872 l 4.964,-4.5 h -3.796 l -3.993,3.708 c -0.488,-0.09 -1.058,-0.137 -1.703,-0.137 -3.211,0 -5.742,1.031 -7.594,3.094 -1.796,2.003 -2.691,4.66 -2.691,7.968 0,3.239 0.902,5.867 2.707,7.895 1.871,2.097 4.395,3.148 7.578,3.152 3.164,-0.004 5.692,-1.055 7.578,-3.152 1.801,-2.028 2.703,-4.656 2.707,-7.895 z m -3.246,0 c -0.004,2.332 -0.59,4.266 -1.761,5.801 -1.289,1.703 -3.051,2.555 -5.278,2.555 -2.246,0 -4.008,-0.852 -5.293,-2.555 -1.164,-1.535 -1.746,-3.469 -1.746,-5.801 0,-2.332 0.555,-4.261 1.672,-5.785 1.25,-1.715 3.039,-2.57 5.367,-2.57 2.309,0 4.098,0.855 5.367,2.57 1.11,1.524 1.668,3.453 1.672,5.785 z m 21.094,-10.687 h -2.781 v 2.48 h -0.059 c -0.422,-0.883 -1.101,-1.578 -2.043,-2.086 -0.941,-0.515 -1.965,-0.769 -3.07,-0.769 -3.899,0 -5.848,2.238 -5.844,6.715 v 9.265 h 2.867 v -8.07 c 0,-1.895 0.239,-3.273 0.719,-4.129 0.504,-0.937 1.371,-1.418 2.602,-1.449 1.57,-0.039 2.765,0.547 3.586,1.765 0.765,1.11 1.148,2.665 1.152,4.665 v 7.218 h 2.871 z m 17.188,0 h -2.688 v 2.019 h -0.062 c -1.141,-1.597 -2.754,-2.394 -4.844,-2.394 -1.766,0 -3.141,0.387 -4.125,1.168 -1.067,0.832 -1.598,2.07 -1.598,3.707 0,1.773 0.836,3.117 2.512,4.035 1.332,0.734 2.918,1.102 4.754,1.105 1.281,-0.003 2.297,-0.023 3.047,-0.058 0,1.39 -0.282,2.41 -0.836,3.051 -0.614,0.675 -1.617,1.011 -3.02,1.015 -1.758,-0.004 -3.269,-0.531 -4.531,-1.586 l -0.149,2.453 c 1.641,0.973 3.356,1.461 5.145,1.465 2.188,-0.004 3.793,-0.547 4.813,-1.629 0.972,-1.05 1.46,-2.66 1.464,-4.828 v -6.461 c -0.004,-1.437 0.036,-2.457 0.118,-3.062 z m -3.004,6.07 v 1.375 c -0.2,-0.004 -0.504,0.004 -0.911,0.027 -0.41,0.016 -0.714,0.028 -0.914,0.032 -3.621,-0.004 -5.429,-1.004 -5.425,-3.004 -0.004,-0.77 0.316,-1.399 0.957,-1.883 0.566,-0.441 1.218,-0.66 1.957,-0.66 1.375,0 2.449,0.394 3.23,1.183 0.735,0.735 1.106,1.711 1.106,2.93 z m 11.019,-6.07 h -2.887 v 22.961 h 2.887 z m 8.668,19.105 h -3.242 v 3.242 h 3.242 z m -0.18,-19.105 h -2.886 v 15.605 h 2.886 z m 13.786,0.058 c -1,-0.289 -1.817,-0.433 -2.454,-0.433 -3.199,0 -4.796,1.515 -4.796,4.547 v 9.117 h -3.528 v 2.316 h 3.528 v 3.617 l 2.867,0.926 v -4.543 h 4.14 V 57.79 h -4.14 v -8.551 c -0.004,-0.871 0.238,-1.559 0.719,-2.062 0.445,-0.481 1.011,-0.719 1.703,-0.719 0.738,0 1.39,0.183 1.961,0.555 z m 15.722,15.547 -5.754,-15.949 c -0.769,-2.129 -1.429,-3.578 -1.972,-4.352 -1.02,-1.398 -2.36,-2.101 -4.024,-2.105 -0.5,0.004 -1.152,0.078 -1.957,0.223 l 0.18,2.347 c 0.484,-0.156 0.934,-0.234 1.348,-0.238 1.082,0.004 1.972,0.606 2.671,1.809 0.508,0.867 0.766,1.55 0.766,2.047 0,0.093 -0.187,0.644 -0.555,1.66 l -5.304,14.558 h 3.152 l 4.199,-12.914 h 0.063 l 4.289,12.914 z"
         style="fill:#ffffff;fill-opacity:1;fill-rule:nonzero;stroke:none"
         id="path94" />
    </g>
    <g
       id="g1239"
       style="opacity:1">
      <g
         id="g4071"
         inkscape:export-filename="g4071.pdf"
         inkscape:export-xdpi="96"
         inkscape:export-ydpi="96">
        <rect
           style="fill:url(#meshgradient3806);fill-opacity:1;stroke-width:0.75"
           id="rect1810"
           width="557.07288"
           height="283.54068"
           x="556.83862"
           y="-774.38818"
           transform="scale(1,-1)"
           ry="141.77034"
           rx="0" />
        <text
           xml:space="preserve"
           style="font-size:20.9162px;font-family:'DejaVu Sans';-inkscape-font-specification:'DejaVu Sans';opacity:0.37827;fill:#000000;stroke-width:1.74301"
           x="631.07404"
           y="-536.19238"
           id="text435"
           transform="scale(1,-1)"><tspan
             sodipodi:role="line"
             style="stroke-width:1.74301"
             x="631.07404"
             y="-536.19238"
             id="tspan437">Instrumentao em Ensino de Fsica - II</tspan></text>
        <text
           xml:space="preserve"
           style="font-size:57.2996px;font-family:'DejaVu Sans';-inkscape-font-specification:'DejaVu Sans';opacity:0.540284;fill:#000000;fill-opacity:1;stroke-width:4.77496"
           x="902.1214"
           y="-571.2666"
           id="text1014"
           transform="scale(1,-1)"><tspan
             sodipodi:role="line"
             id="tspan1012"
             style="fill:#000000;fill-opacity:1;stroke-width:4.77496"
             x="902.1214"
             y="-571.2666">2001</tspan></text>
        <text
           xml:space="preserve"
           style="font-size:217.889px;font-family:'DejaVu Sans';-inkscape-font-specification:'DejaVu Sans';fill:#4d4d4d;fill-opacity:1;stroke-width:18.1575"
           x="651.8291"
           y="-570.57391"
           id="text1006"
           transform="scale(1,-1)"><tspan
             sodipodi:role="line"
             id="tspan1004"
             style="fill:#4d4d4d;fill-opacity:1;stroke-width:18.1575"
             x="651.8291"
             y="-570.57391">E</tspan></text>
        <text
           xml:space="preserve"
           style="font-size:217.892px;font-family:'DejaVu Sans';-inkscape-font-specification:'DejaVu Sans';fill:#4d4d4d;fill-opacity:1;stroke-width:18.1577"
           x="766.84607"
           y="-570.46661"
           id="text1010"
           transform="scale(1,-1)"><tspan
             sodipodi:role="line"
             id="tspan1008"
             style="fill:#4d4d4d;fill-opacity:1;stroke-width:18.1577"
             x="766.84607"
             y="-570.46661">F</tspan></text>
        <text
           xml:space="preserve"
           style="font-size:218.525px;font-family:'DejaVu Sans';-inkscape-font-specification:'DejaVu Sans';fill:#4d4d4d;fill-opacity:1;stroke-width:18.2103"
           x="611.20642"
           y="-570.34381"
           id="text1018"
           transform="scale(1,-1)"><tspan
             sodipodi:role="line"
             id="tspan1016"
             style="fill:#4d4d4d;fill-opacity:1;stroke-width:18.2103"
             x="611.20642"
             y="-570.34381">I</tspan></text>
      </g>
    </g>
  </g>
  <script
     id="mesh_polyfill"
     type="text/javascript">
!function(){const t=&quot;http://www.w3.org/2000/svg&quot;,e=&quot;http://www.w3.org/1999/xlink&quot;,s=&quot;http://www.w3.org/1999/xhtml&quot;,r=2;if(document.createElementNS(t,&quot;meshgradient&quot;).x)return;const n=(t,e,s,r)=&gt;{let n=new x(.5*(e.x+s.x),.5*(e.y+s.y)),o=new x(.5*(t.x+e.x),.5*(t.y+e.y)),i=new x(.5*(s.x+r.x),.5*(s.y+r.y)),a=new x(.5*(n.x+o.x),.5*(n.y+o.y)),h=new x(.5*(n.x+i.x),.5*(n.y+i.y)),l=new x(.5*(a.x+h.x),.5*(a.y+h.y));return[[t,o,a,l],[l,h,i,r]]},o=t=&gt;{let e=t[0].distSquared(t[1]),s=t[2].distSquared(t[3]),r=.25*t[0].distSquared(t[2]),n=.25*t[1].distSquared(t[3]),o=e&gt;s?e:s,i=r&gt;n?r:n;return 18*(o&gt;i?o:i)},i=(t,e)=&gt;Math.sqrt(t.distSquared(e)),a=(t,e)=&gt;t.scale(2/3).add(e.scale(1/3)),h=t=&gt;{let e,s,r,n,o,i,a,h=new g;return t.match(/(\w+\(\s*[^)]+\))+/g).forEach(t=&gt;{let l=t.match(/[\w.-]+/g),d=l.shift();switch(d){case&quot;translate&quot;:2===l.length?e=new g(1,0,0,1,l[0],l[1]):(console.error(&quot;mesh.js: translate does not have 2 arguments!&quot;),e=new g(1,0,0,1,0,0)),h=h.append(e);break;case&quot;scale&quot;:1===l.length?s=new g(l[0],0,0,l[0],0,0):2===l.length?s=new g(l[0],0,0,l[1],0,0):(console.error(&quot;mesh.js: scale does not have 1 or 2 arguments!&quot;),s=new g(1,0,0,1,0,0)),h=h.append(s);break;case&quot;rotate&quot;:if(3===l.length&amp;&amp;(e=new g(1,0,0,1,l[1],l[2]),h=h.append(e)),l[0]){r=l[0]*Math.PI/180;let t=Math.cos(r),e=Math.sin(r);Math.abs(t)&lt;1e-16&amp;&amp;(t=0),Math.abs(e)&lt;1e-16&amp;&amp;(e=0),a=new g(t,e,-e,t,0,0),h=h.append(a)}else console.error(&quot;math.js: No argument to rotate transform!&quot;);3===l.length&amp;&amp;(e=new g(1,0,0,1,-l[1],-l[2]),h=h.append(e));break;case&quot;skewX&quot;:l[0]?(r=l[0]*Math.PI/180,n=Math.tan(r),o=new g(1,0,n,1,0,0),h=h.append(o)):console.error(&quot;math.js: No argument to skewX transform!&quot;);break;case&quot;skewY&quot;:l[0]?(r=l[0]*Math.PI/180,n=Math.tan(r),i=new g(1,n,0,1,0,0),h=h.append(i)):console.error(&quot;math.js: No argument to skewY transform!&quot;);break;case&quot;matrix&quot;:6===l.length?h=h.append(new g(...l)):console.error(&quot;math.js: Incorrect number of arguments for matrix!&quot;);break;default:console.error(&quot;mesh.js: Unhandled transform type: &quot;+d)}}),h},l=t=&gt;{let e=[],s=t.split(/[ ,]+/);for(let t=0,r=s.length-1;t&lt;r;t+=2)e.push(new x(parseFloat(s[t]),parseFloat(s[t+1])));return e},d=(t,e)=&gt;{for(let s in e)t.setAttribute(s,e[s])},c=(t,e,s,r,n)=&gt;{let o,i,a=[0,0,0,0];for(let h=0;h&lt;3;++h)e[h]&lt;t[h]&amp;&amp;e[h]&lt;s[h]||t[h]&lt;e[h]&amp;&amp;s[h]&lt;e[h]?a[h]=0:(a[h]=.5*((e[h]-t[h])/r+(s[h]-e[h])/n),o=Math.abs(3*(e[h]-t[h])/r),i=Math.abs(3*(s[h]-e[h])/n),a[h]&gt;o?a[h]=o:a[h]&gt;i&amp;&amp;(a[h]=i));return a},u=[[1,0,0,0,0,0,0,0,0,0,0,0,0,0,0,0],[0,0,0,0,1,0,0,0,0,0,0,0,0,0,0,0],[-3,3,0,0,-2,-1,0,0,0,0,0,0,0,0,0,0],[2,-2,0,0,1,1,0,0,0,0,0,0,0,0,0,0],[0,0,0,0,0,0,0,0,1,0,0,0,0,0,0,0],[0,0,0,0,0,0,0,0,0,0,0,0,1,0,0,0],[0,0,0,0,0,0,0,0,-3,3,0,0,-2,-1,0,0],[0,0,0,0,0,0,0,0,2,-2,0,0,1,1,0,0],[-3,0,3,0,0,0,0,0,-2,0,-1,0,0,0,0,0],[0,0,0,0,-3,0,3,0,0,0,0,0,-2,0,-1,0],[9,-9,-9,9,6,3,-6,-3,6,-6,3,-3,4,2,2,1],[-6,6,6,-6,-3,-3,3,3,-4,4,-2,2,-2,-2,-1,-1],[2,0,-2,0,0,0,0,0,1,0,1,0,0,0,0,0],[0,0,0,0,2,0,-2,0,0,0,0,0,1,0,1,0],[-6,6,6,-6,-4,-2,4,2,-3,3,-3,3,-2,-1,-2,-1],[4,-4,-4,4,2,2,-2,-2,2,-2,2,-2,1,1,1,1]],f=t=&gt;{let e=[];for(let s=0;s&lt;16;++s){e[s]=0;for(let r=0;r&lt;16;++r)e[s]+=u[s][r]*t[r]}return e},p=(t,e,s)=&gt;{const r=e*e,n=s*s,o=e*e*e,i=s*s*s;return t[0]+t[1]*e+t[2]*r+t[3]*o+t[4]*s+t[5]*s*e+t[6]*s*r+t[7]*s*o+t[8]*n+t[9]*n*e+t[10]*n*r+t[11]*n*o+t[12]*i+t[13]*i*e+t[14]*i*r+t[15]*i*o},y=t=&gt;{let e=[],s=[],r=[];for(let s=0;s&lt;4;++s)e[s]=[],e[s][0]=n(t[0][s],t[1][s],t[2][s],t[3][s]),e[s][1]=[],e[s][1].push(...n(...e[s][0][0])),e[s][1].push(...n(...e[s][0][1])),e[s][2]=[],e[s][2].push(...n(...e[s][1][0])),e[s][2].push(...n(...e[s][1][1])),e[s][2].push(...n(...e[s][1][2])),e[s][2].push(...n(...e[s][1][3]));for(let t=0;t&lt;8;++t){s[t]=[];for(let r=0;r&lt;4;++r)s[t][r]=[],s[t][r][0]=n(e[0][2][t][r],e[1][2][t][r],e[2][2][t][r],e[3][2][t][r]),s[t][r][1]=[],s[t][r][1].push(...n(...s[t][r][0][0])),s[t][r][1].push(...n(...s[t][r][0][1])),s[t][r][2]=[],s[t][r][2].push(...n(...s[t][r][1][0])),s[t][r][2].push(...n(...s[t][r][1][1])),s[t][r][2].push(...n(...s[t][r][1][2])),s[t][r][2].push(...n(...s[t][r][1][3]))}for(let t=0;t&lt;8;++t){r[t]=[];for(let e=0;e&lt;8;++e)r[t][e]=[],r[t][e][0]=s[t][0][2][e],r[t][e][1]=s[t][1][2][e],r[t][e][2]=s[t][2][2][e],r[t][e][3]=s[t][3][2][e]}return r};class x{constructor(t,e){this.x=t||0,this.y=e||0}toString(){return`(x=${this.x}, y=${this.y})`}clone(){return new x(this.x,this.y)}add(t){return new x(this.x+t.x,this.y+t.y)}scale(t){return void 0===t.x?new x(this.x*t,this.y*t):new x(this.x*t.x,this.y*t.y)}distSquared(t){let e=this.x-t.x,s=this.y-t.y;return e*e+s*s}transform(t){let e=this.x*t.a+this.y*t.c+t.e,s=this.x*t.b+this.y*t.d+t.f;return new x(e,s)}}class g{constructor(t,e,s,r,n,o){void 0===t?(this.a=1,this.b=0,this.c=0,this.d=1,this.e=0,this.f=0):(this.a=t,this.b=e,this.c=s,this.d=r,this.e=n,this.f=o)}toString(){return`affine: ${this.a} ${this.c} ${this.e} \n       ${this.b} ${this.d} ${this.f}`}append(t){t instanceof g||console.error(&quot;mesh.js: argument to Affine.append is not affine!&quot;);let e=this.a*t.a+this.c*t.b,s=this.b*t.a+this.d*t.b,r=this.a*t.c+this.c*t.d,n=this.b*t.c+this.d*t.d,o=this.a*t.e+this.c*t.f+this.e,i=this.b*t.e+this.d*t.f+this.f;return new g(e,s,r,n,o,i)}}class w{constructor(t,e){this.nodes=t,this.colors=e}paintCurve(t,e){if(o(this.nodes)&gt;r){const s=n(...this.nodes);let r=[[],[]],o=[[],[]];for(let t=0;t&lt;4;++t)r[0][t]=this.colors[0][t],r[1][t]=(this.colors[0][t]+this.colors[1][t])/2,o[0][t]=r[1][t],o[1][t]=this.colors[1][t];let i=new w(s[0],r),a=new w(s[1],o);i.paintCurve(t,e),a.paintCurve(t,e)}else{let s=Math.round(this.nodes[0].x);if(s&gt;=0&amp;&amp;s&lt;e){let r=4*(~~this.nodes[0].y*e+s);t[r]=Math.round(this.colors[0][0]),t[r+1]=Math.round(this.colors[0][1]),t[r+2]=Math.round(this.colors[0][2]),t[r+3]=Math.round(this.colors[0][3])}}}}class m{constructor(t,e){this.nodes=t,this.colors=e}split(){let t=[[],[],[],[]],e=[[],[],[],[]],s=[[[],[]],[[],[]]],r=[[[],[]],[[],[]]];for(let s=0;s&lt;4;++s){const r=n(this.nodes[0][s],this.nodes[1][s],this.nodes[2][s],this.nodes[3][s]);t[0][s]=r[0][0],t[1][s]=r[0][1],t[2][s]=r[0][2],t[3][s]=r[0][3],e[0][s]=r[1][0],e[1][s]=r[1][1],e[2][s]=r[1][2],e[3][s]=r[1][3]}for(let t=0;t&lt;4;++t)s[0][0][t]=this.colors[0][0][t],s[0][1][t]=this.colors[0][1][t],s[1][0][t]=(this.colors[0][0][t]+this.colors[1][0][t])/2,s[1][1][t]=(this.colors[0][1][t]+this.colors[1][1][t])/2,r[0][0][t]=s[1][0][t],r[0][1][t]=s[1][1][t],r[1][0][t]=this.colors[1][0][t],r[1][1][t]=this.colors[1][1][t];return[new m(t,s),new m(e,r)]}paint(t,e){let s,n=!1;for(let t=0;t&lt;4;++t)if((s=o([this.nodes[0][t],this.nodes[1][t],this.nodes[2][t],this.nodes[3][t]]))&gt;r){n=!0;break}if(n){let s=this.split();s[0].paint(t,e),s[1].paint(t,e)}else{new w([...this.nodes[0]],[...this.colors[0]]).paintCurve(t,e)}}}class b{constructor(t){this.readMesh(t),this.type=t.getAttribute(&quot;type&quot;)||&quot;bilinear&quot;}readMesh(t){let e=[[]],s=[[]],r=Number(t.getAttribute(&quot;x&quot;)),n=Number(t.getAttribute(&quot;y&quot;));e[0][0]=new x(r,n);let o=t.children;for(let t=0,r=o.length;t&lt;r;++t){e[3*t+1]=[],e[3*t+2]=[],e[3*t+3]=[],s[t+1]=[];let r=o[t].children;for(let n=0,o=r.length;n&lt;o;++n){let o=r[n].children;for(let r=0,i=o.length;r&lt;i;++r){let i=r;0!==t&amp;&amp;++i;let h,d=o[r].getAttribute(&quot;path&quot;),c=&quot;l&quot;;null!=d&amp;&amp;(c=(h=d.match(/\s*([lLcC])\s*(.*)/))[1]);let u=l(h[2]);switch(c){case&quot;l&quot;:0===i?(e[3*t][3*n+3]=u[0].add(e[3*t][3*n]),e[3*t][3*n+1]=a(e[3*t][3*n],e[3*t][3*n+3]),e[3*t][3*n+2]=a(e[3*t][3*n+3],e[3*t][3*n])):1===i?(e[3*t+3][3*n+3]=u[0].add(e[3*t][3*n+3]),e[3*t+1][3*n+3]=a(e[3*t][3*n+3],e[3*t+3][3*n+3]),e[3*t+2][3*n+3]=a(e[3*t+3][3*n+3],e[3*t][3*n+3])):2===i?(0===n&amp;&amp;(e[3*t+3][3*n+0]=u[0].add(e[3*t+3][3*n+3])),e[3*t+3][3*n+1]=a(e[3*t+3][3*n],e[3*t+3][3*n+3]),e[3*t+3][3*n+2]=a(e[3*t+3][3*n+3],e[3*t+3][3*n])):(e[3*t+1][3*n]=a(e[3*t][3*n],e[3*t+3][3*n]),e[3*t+2][3*n]=a(e[3*t+3][3*n],e[3*t][3*n]));break;case&quot;L&quot;:0===i?(e[3*t][3*n+3]=u[0],e[3*t][3*n+1]=a(e[3*t][3*n],e[3*t][3*n+3]),e[3*t][3*n+2]=a(e[3*t][3*n+3],e[3*t][3*n])):1===i?(e[3*t+3][3*n+3]=u[0],e[3*t+1][3*n+3]=a(e[3*t][3*n+3],e[3*t+3][3*n+3]),e[3*t+2][3*n+3]=a(e[3*t+3][3*n+3],e[3*t][3*n+3])):2===i?(0===n&amp;&amp;(e[3*t+3][3*n+0]=u[0]),e[3*t+3][3*n+1]=a(e[3*t+3][3*n],e[3*t+3][3*n+3]),e[3*t+3][3*n+2]=a(e[3*t+3][3*n+3],e[3*t+3][3*n])):(e[3*t+1][3*n]=a(e[3*t][3*n],e[3*t+3][3*n]),e[3*t+2][3*n]=a(e[3*t+3][3*n],e[3*t][3*n]));break;case&quot;c&quot;:0===i?(e[3*t][3*n+1]=u[0].add(e[3*t][3*n]),e[3*t][3*n+2]=u[1].add(e[3*t][3*n]),e[3*t][3*n+3]=u[2].add(e[3*t][3*n])):1===i?(e[3*t+1][3*n+3]=u[0].add(e[3*t][3*n+3]),e[3*t+2][3*n+3]=u[1].add(e[3*t][3*n+3]),e[3*t+3][3*n+3]=u[2].add(e[3*t][3*n+3])):2===i?(e[3*t+3][3*n+2]=u[0].add(e[3*t+3][3*n+3]),e[3*t+3][3*n+1]=u[1].add(e[3*t+3][3*n+3]),0===n&amp;&amp;(e[3*t+3][3*n+0]=u[2].add(e[3*t+3][3*n+3]))):(e[3*t+2][3*n]=u[0].add(e[3*t+3][3*n]),e[3*t+1][3*n]=u[1].add(e[3*t+3][3*n]));break;case&quot;C&quot;:0===i?(e[3*t][3*n+1]=u[0],e[3*t][3*n+2]=u[1],e[3*t][3*n+3]=u[2]):1===i?(e[3*t+1][3*n+3]=u[0],e[3*t+2][3*n+3]=u[1],e[3*t+3][3*n+3]=u[2]):2===i?(e[3*t+3][3*n+2]=u[0],e[3*t+3][3*n+1]=u[1],0===n&amp;&amp;(e[3*t+3][3*n+0]=u[2])):(e[3*t+2][3*n]=u[0],e[3*t+1][3*n]=u[1]);break;default:console.error(&quot;mesh.js: &quot;+c+&quot; invalid path type.&quot;)}if(0===t&amp;&amp;0===n||r&gt;0){let e=window.getComputedStyle(o[r]).stopColor.match(/^rgb\s*\(\s*(\d+)\s*,\s*(\d+)\s*,\s*(\d+)\s*\)$/i),a=window.getComputedStyle(o[r]).stopOpacity,h=255;a&amp;&amp;(h=Math.floor(255*a)),e&amp;&amp;(0===i?(s[t][n]=[],s[t][n][0]=Math.floor(e[1]),s[t][n][1]=Math.floor(e[2]),s[t][n][2]=Math.floor(e[3]),s[t][n][3]=h):1===i?(s[t][n+1]=[],s[t][n+1][0]=Math.floor(e[1]),s[t][n+1][1]=Math.floor(e[2]),s[t][n+1][2]=Math.floor(e[3]),s[t][n+1][3]=h):2===i?(s[t+1][n+1]=[],s[t+1][n+1][0]=Math.floor(e[1]),s[t+1][n+1][1]=Math.floor(e[2]),s[t+1][n+1][2]=Math.floor(e[3]),s[t+1][n+1][3]=h):3===i&amp;&amp;(s[t+1][n]=[],s[t+1][n][0]=Math.floor(e[1]),s[t+1][n][1]=Math.floor(e[2]),s[t+1][n][2]=Math.floor(e[3]),s[t+1][n][3]=h))}}e[3*t+1][3*n+1]=new x,e[3*t+1][3*n+2]=new x,e[3*t+2][3*n+1]=new x,e[3*t+2][3*n+2]=new x,e[3*t+1][3*n+1].x=(-4*e[3*t][3*n].x+6*(e[3*t][3*n+1].x+e[3*t+1][3*n].x)+-2*(e[3*t][3*n+3].x+e[3*t+3][3*n].x)+3*(e[3*t+3][3*n+1].x+e[3*t+1][3*n+3].x)+-1*e[3*t+3][3*n+3].x)/9,e[3*t+1][3*n+2].x=(-4*e[3*t][3*n+3].x+6*(e[3*t][3*n+2].x+e[3*t+1][3*n+3].x)+-2*(e[3*t][3*n].x+e[3*t+3][3*n+3].x)+3*(e[3*t+3][3*n+2].x+e[3*t+1][3*n].x)+-1*e[3*t+3][3*n].x)/9,e[3*t+2][3*n+1].x=(-4*e[3*t+3][3*n].x+6*(e[3*t+3][3*n+1].x+e[3*t+2][3*n].x)+-2*(e[3*t+3][3*n+3].x+e[3*t][3*n].x)+3*(e[3*t][3*n+1].x+e[3*t+2][3*n+3].x)+-1*e[3*t][3*n+3].x)/9,e[3*t+2][3*n+2].x=(-4*e[3*t+3][3*n+3].x+6*(e[3*t+3][3*n+2].x+e[3*t+2][3*n+3].x)+-2*(e[3*t+3][3*n].x+e[3*t][3*n+3].x)+3*(e[3*t][3*n+2].x+e[3*t+2][3*n].x)+-1*e[3*t][3*n].x)/9,e[3*t+1][3*n+1].y=(-4*e[3*t][3*n].y+6*(e[3*t][3*n+1].y+e[3*t+1][3*n].y)+-2*(e[3*t][3*n+3].y+e[3*t+3][3*n].y)+3*(e[3*t+3][3*n+1].y+e[3*t+1][3*n+3].y)+-1*e[3*t+3][3*n+3].y)/9,e[3*t+1][3*n+2].y=(-4*e[3*t][3*n+3].y+6*(e[3*t][3*n+2].y+e[3*t+1][3*n+3].y)+-2*(e[3*t][3*n].y+e[3*t+3][3*n+3].y)+3*(e[3*t+3][3*n+2].y+e[3*t+1][3*n].y)+-1*e[3*t+3][3*n].y)/9,e[3*t+2][3*n+1].y=(-4*e[3*t+3][3*n].y+6*(e[3*t+3][3*n+1].y+e[3*t+2][3*n].y)+-2*(e[3*t+3][3*n+3].y+e[3*t][3*n].y)+3*(e[3*t][3*n+1].y+e[3*t+2][3*n+3].y)+-1*e[3*t][3*n+3].y)/9,e[3*t+2][3*n+2].y=(-4*e[3*t+3][3*n+3].y+6*(e[3*t+3][3*n+2].y+e[3*t+2][3*n+3].y)+-2*(e[3*t+3][3*n].y+e[3*t][3*n+3].y)+3*(e[3*t][3*n+2].y+e[3*t+2][3*n].y)+-1*e[3*t][3*n].y)/9}}this.nodes=e,this.colors=s}paintMesh(t,e){let s=(this.nodes.length-1)/3,r=(this.nodes[0].length-1)/3;if(&quot;bilinear&quot;===this.type||s&lt;2||r&lt;2){let n;for(let o=0;o&lt;s;++o)for(let s=0;s&lt;r;++s){let r=[];for(let t=3*o,e=3*o+4;t&lt;e;++t)r.push(this.nodes[t].slice(3*s,3*s+4));let i=[];i.push(this.colors[o].slice(s,s+2)),i.push(this.colors[o+1].slice(s,s+2)),(n=new m(r,i)).paint(t,e)}}else{let n,o,a,h,l,d,u;const x=s,g=r;s++,r++;let w=new Array(s);for(let t=0;t&lt;s;++t){w[t]=new Array(r);for(let e=0;e&lt;r;++e)w[t][e]=[],w[t][e][0]=this.nodes[3*t][3*e],w[t][e][1]=this.colors[t][e]}for(let t=0;t&lt;s;++t)for(let e=0;e&lt;r;++e)0!==t&amp;&amp;t!==x&amp;&amp;(n=i(w[t-1][e][0],w[t][e][0]),o=i(w[t+1][e][0],w[t][e][0]),w[t][e][2]=c(w[t-1][e][1],w[t][e][1],w[t+1][e][1],n,o)),0!==e&amp;&amp;e!==g&amp;&amp;(n=i(w[t][e-1][0],w[t][e][0]),o=i(w[t][e+1][0],w[t][e][0]),w[t][e][3]=c(w[t][e-1][1],w[t][e][1],w[t][e+1][1],n,o));for(let t=0;t&lt;r;++t){w[0][t][2]=[],w[x][t][2]=[];for(let e=0;e&lt;4;++e)n=i(w[1][t][0],w[0][t][0]),o=i(w[x][t][0],w[x-1][t][0]),w[0][t][2][e]=n&gt;0?2*(w[1][t][1][e]-w[0][t][1][e])/n-w[1][t][2][e]:0,w[x][t][2][e]=o&gt;0?2*(w[x][t][1][e]-w[x-1][t][1][e])/o-w[x-1][t][2][e]:0}for(let t=0;t&lt;s;++t){w[t][0][3]=[],w[t][g][3]=[];for(let e=0;e&lt;4;++e)n=i(w[t][1][0],w[t][0][0]),o=i(w[t][g][0],w[t][g-1][0]),w[t][0][3][e]=n&gt;0?2*(w[t][1][1][e]-w[t][0][1][e])/n-w[t][1][3][e]:0,w[t][g][3][e]=o&gt;0?2*(w[t][g][1][e]-w[t][g-1][1][e])/o-w[t][g-1][3][e]:0}for(let s=0;s&lt;x;++s)for(let r=0;r&lt;g;++r){let n=i(w[s][r][0],w[s+1][r][0]),o=i(w[s][r+1][0],w[s+1][r+1][0]),c=i(w[s][r][0],w[s][r+1][0]),x=i(w[s+1][r][0],w[s+1][r+1][0]),g=[[],[],[],[]];for(let t=0;t&lt;4;++t){(d=[])[0]=w[s][r][1][t],d[1]=w[s+1][r][1][t],d[2]=w[s][r+1][1][t],d[3]=w[s+1][r+1][1][t],d[4]=w[s][r][2][t]*n,d[5]=w[s+1][r][2][t]*n,d[6]=w[s][r+1][2][t]*o,d[7]=w[s+1][r+1][2][t]*o,d[8]=w[s][r][3][t]*c,d[9]=w[s+1][r][3][t]*x,d[10]=w[s][r+1][3][t]*c,d[11]=w[s+1][r+1][3][t]*x,d[12]=0,d[13]=0,d[14]=0,d[15]=0,u=f(d);for(let e=0;e&lt;9;++e){g[t][e]=[];for(let s=0;s&lt;9;++s)g[t][e][s]=p(u,e/8,s/8),g[t][e][s]&gt;255?g[t][e][s]=255:g[t][e][s]&lt;0&amp;&amp;(g[t][e][s]=0)}}h=[];for(let t=3*s,e=3*s+4;t&lt;e;++t)h.push(this.nodes[t].slice(3*r,3*r+4));l=y(h);for(let s=0;s&lt;8;++s)for(let r=0;r&lt;8;++r)(a=new m(l[s][r],[[[g[0][s][r],g[1][s][r],g[2][s][r],g[3][s][r]],[g[0][s][r+1],g[1][s][r+1],g[2][s][r+1],g[3][s][r+1]]],[[g[0][s+1][r],g[1][s+1][r],g[2][s+1][r],g[3][s+1][r]],[g[0][s+1][r+1],g[1][s+1][r+1],g[2][s+1][r+1],g[3][s+1][r+1]]]])).paint(t,e)}}}transform(t){if(t instanceof x)for(let e=0,s=this.nodes.length;e&lt;s;++e)for(let s=0,r=this.nodes[0].length;s&lt;r;++s)this.nodes[e][s]=this.nodes[e][s].add(t);else if(t instanceof g)for(let e=0,s=this.nodes.length;e&lt;s;++e)for(let s=0,r=this.nodes[0].length;s&lt;r;++s)this.nodes[e][s]=this.nodes[e][s].transform(t)}scale(t){for(let e=0,s=this.nodes.length;e&lt;s;++e)for(let s=0,r=this.nodes[0].length;s&lt;r;++s)this.nodes[e][s]=this.nodes[e][s].scale(t)}}document.querySelectorAll(&quot;rect,circle,ellipse,path,text&quot;).forEach((r,n)=&gt;{let o=r.getAttribute(&quot;id&quot;);o||(o=&quot;patchjs_shape&quot;+n,r.setAttribute(&quot;id&quot;,o));const i=r.style.fill.match(/^url\(\s*&quot;?\s*#([^\s&quot;]+)&quot;?\s*\)/),a=r.style.stroke.match(/^url\(\s*&quot;?\s*#([^\s&quot;]+)&quot;?\s*\)/);if(i&amp;&amp;i[1]){const a=document.getElementById(i[1]);if(a&amp;&amp;&quot;meshgradient&quot;===a.nodeName){const i=r.getBBox();let l=document.createElementNS(s,&quot;canvas&quot;);d(l,{width:i.width,height:i.height});const c=l.getContext(&quot;2d&quot;);let u=c.createImageData(i.width,i.height);const f=new b(a);&quot;objectBoundingBox&quot;===a.getAttribute(&quot;gradientUnits&quot;)&amp;&amp;f.scale(new x(i.width,i.height));const p=a.getAttribute(&quot;gradientTransform&quot;);null!=p&amp;&amp;f.transform(h(p)),&quot;userSpaceOnUse&quot;===a.getAttribute(&quot;gradientUnits&quot;)&amp;&amp;f.transform(new x(-i.x,-i.y)),f.paintMesh(u.data,l.width),c.putImageData(u,0,0);const y=document.createElementNS(t,&quot;image&quot;);d(y,{width:i.width,height:i.height,x:i.x,y:i.y});let g=l.toDataURL();y.setAttributeNS(e,&quot;xlink:href&quot;,g),r.parentNode.insertBefore(y,r),r.style.fill=&quot;none&quot;;const w=document.createElementNS(t,&quot;use&quot;);w.setAttributeNS(e,&quot;xlink:href&quot;,&quot;#&quot;+o);const m=&quot;patchjs_clip&quot;+n,M=document.createElementNS(t,&quot;clipPath&quot;);M.setAttribute(&quot;id&quot;,m),M.appendChild(w),r.parentElement.insertBefore(M,r),y.setAttribute(&quot;clip-path&quot;,&quot;url(#&quot;+m+&quot;)&quot;),u=null,l=null,g=null}}if(a&amp;&amp;a[1]){const o=document.getElementById(a[1]);if(o&amp;&amp;&quot;meshgradient&quot;===o.nodeName){const i=parseFloat(r.style.strokeWidth.slice(0,-2))*(parseFloat(r.style.strokeMiterlimit)||parseFloat(r.getAttribute(&quot;stroke-miterlimit&quot;))||1),a=r.getBBox(),l=Math.trunc(a.width+i),c=Math.trunc(a.height+i),u=Math.trunc(a.x-i/2),f=Math.trunc(a.y-i/2);let p=document.createElementNS(s,&quot;canvas&quot;);d(p,{width:l,height:c});const y=p.getContext(&quot;2d&quot;);let g=y.createImageData(l,c);const w=new b(o);&quot;objectBoundingBox&quot;===o.getAttribute(&quot;gradientUnits&quot;)&amp;&amp;w.scale(new x(l,c));const m=o.getAttribute(&quot;gradientTransform&quot;);null!=m&amp;&amp;w.transform(h(m)),&quot;userSpaceOnUse&quot;===o.getAttribute(&quot;gradientUnits&quot;)&amp;&amp;w.transform(new x(-u,-f)),w.paintMesh(g.data,p.width),y.putImageData(g,0,0);const M=document.createElementNS(t,&quot;image&quot;);d(M,{width:l,height:c,x:0,y:0});let S=p.toDataURL();M.setAttributeNS(e,&quot;xlink:href&quot;,S);const k=&quot;pattern_clip&quot;+n,A=document.createElementNS(t,&quot;pattern&quot;);d(A,{id:k,patternUnits:&quot;userSpaceOnUse&quot;,width:l,height:c,x:u,y:f}),A.appendChild(M),o.parentNode.appendChild(A),r.style.stroke=&quot;url(#&quot;+k+&quot;)&quot;,g=null,p=null,S=null}}})}();
</script>
</svg>
